<svg height="512pt" viewBox="0 0 512 512" width="512pt" xmlns="http://www.w3.org/2000/svg"><path d="m512 256c0 141.382812-114.617188 256-256 256-45.023438 0-87.332031-11.621094-124.082031-32.039062-10.679688-5.921876-20.886719-12.589844-30.5625-19.933594-6.898438-5.238282-13.53125-10.816406-19.855469-16.71875-50.144531-46.730469-81.5-113.363282-81.5-187.308594 0-141.386719 114.613281-256 256-256 141.382812 0 256 114.613281 256 256zm0 0" fill="#673389"/><path d="m382.117188 449.578125v29.246094c-28.222657 16.007812-59.789063 26.8125-93.394532 31.097656-10.722656 1.367187-21.640625 2.078125-32.726562 2.078125-13.3125 0-26.363282-1.011719-39.109375-2.96875-13.167969-2.015625-25.996094-5.046875-38.421875-8.984375-17.03125-5.402344-33.300782-12.550781-48.585938-21.222656v-29.246094c0-44.441406 30.476563-81.785156 71.6875-92.210937 5.070313-1.296876 10.304688-2.175782 15.664063-2.601563 2.570312-.210937 5.160156-.316406 7.785156-.316406h61.953125c7.25 0 14.3125.804687 21.09375 2.34375.0625.007812.136719.03125.199219.039062 42.296875 9.675781 73.855469 47.535157 73.855469 92.746094zm0 0" fill="#0c85a5"/><path d="m382.117188 449.578125v29.246094c-22.726563 12.894531-47.617188 22.414062-74 27.855469-1.570313.324218-3.148438.640624-4.722657.933593-7.390625 1.386719-14.890625 2.453125-22.488281 3.175781-6.070312.59375-12.214844.96875-18.398438 1.128907-2.164062.050781-4.339843.082031-6.511718.082031-8.410156 0-16.71875-.40625-24.921875-1.191406-7.59375-.742188-15.097657-1.808594-22.484375-3.195313-10.273438-1.925781-20.324219-4.464843-30.125-7.566406v-50.46875c0-6.738281.699218-13.324219 2.039062-19.664063 2.609375-12.457031 7.667969-24.003906 14.636719-34.136718.273437-.417969.566406-.816406.847656-1.222656 5.277344-7.429688 11.585938-14.066407 18.734375-19.6875 16.195313-12.789063 36.65625-20.417969 58.890625-20.417969h13.355469c4.28125 0 8.503906.285156 12.640625.835937 7.449219.984375 14.640625 2.84375 21.441406 5.464844 35.714844 13.691406 61.066407 48.296875 61.066407 88.828125zm0 0" fill="#1da2dd"/><path d="m177.179688 449.578125v50.0625c-16.570313-5.363281-32.402344-12.363281-47.300782-20.816406v-29.246094zm0 0" fill="#eaa27f"/><path d="m382.117188 449.578125v29.246094c-14.902344 8.453125-30.730469 15.453125-47.304688 20.816406v-50.0625zm0 0" fill="#f6ba97"/><path d="m334.8125 449.578125h47.304688v12.550781h-47.304688zm0 0" fill="#f2efea"/><path d="m129.878906 449.578125h47.300782v12.550781h-47.300782zm0 0" fill="#f2efea"/><path d="m289.933594 317.804688v41.652343c0 15.253907-10.054688 28.140625-23.902344 32.421875-3.171875.984375-6.550781 1.515625-10.046875 1.515625-18.742187 0-33.9375-15.191406-33.9375-33.9375v-41.652343zm0 0" fill="#eaa27f"/><path d="m289.933594 356.820312v2.636719c0 15.253907-10.054688 28.140625-23.902344 32.421875-12.496094-3.839844-21.894531-14.707031-23.628906-28 2.265625.140625 4.546875.207032 6.835937.207032 6.421875 0 12.71875-.507813 18.851563-1.515626 7.554687-1.214843 14.855468-3.15625 21.84375-5.75zm0 0" fill="#f6ba97"/><path d="m162.882812 249.535156c0 15.710938-11.476562 28.742188-26.507812 31.160156-1.640625.265626-3.332031.402344-5.054688.402344-17.4375 0-31.566406-14.125-31.566406-31.5625s14.128906-31.566406 31.566406-31.566406c1.722657 0 3.414063.136719 5.054688.40625 15.03125 2.417969 26.507812 15.445312 26.507812 31.160156zm0 0" fill="#f6ba97"/><path d="m162.882812 249.535156c0 15.710938-11.476562 28.742188-26.507812 31.160156-2.730469-9.929687-4.1875-20.378906-4.1875-31.160156 0-10.785156 1.457031-21.234375 4.1875-31.160156 15.03125 2.417969 26.507812 15.445312 26.507812 31.160156zm0 0" fill="#eaa27f"/><path d="m142.601562 249.535156c0 6.230469-5.050781 11.28125-11.28125 11.28125-6.230468 0-11.28125-5.050781-11.28125-11.28125 0-6.230468 5.050782-11.285156 11.28125-11.285156 6.230469 0 11.28125 5.054688 11.28125 11.285156zm0 0" fill="#eaa27f"/><path d="m349.101562 249.535156c0 15.710938 11.476563 28.742188 26.507813 31.160156 1.644531.265626 3.332031.402344 5.058594.402344 17.4375 0 31.5625-14.125 31.5625-31.5625s-14.125-31.566406-31.5625-31.566406c-1.726563 0-3.414063.136719-5.058594.40625-15.03125 2.417969-26.507813 15.445312-26.507813 31.160156zm0 0" fill="#f6ba97"/><g fill="#eaa27f"><path d="m349.101562 249.535156c0 15.710938 11.476563 28.742188 26.507813 31.160156 2.730469-9.929687 4.191406-20.378906 4.191406-31.160156 0-10.785156-1.457031-21.234375-4.191406-31.160156-15.03125 2.417969-26.507813 15.445312-26.507813 31.160156zm0 0"/><path d="m391.949219 249.535156c0 6.230469-5.050781 11.28125-11.28125 11.28125s-11.28125-5.050781-11.28125-11.28125c0-6.230468 5.050781-11.285156 11.28125-11.285156s11.28125 5.054688 11.28125 11.285156zm0 0"/><path d="m373.4375 232.753906c0 58.445313-42.695312 106.925782-98.59375 115.929688-6.132812 1.003906-12.425781 1.515625-18.847656 1.515625-64.867188 0-117.445313-52.578125-117.445313-117.445313 0-64.863281 52.578125-117.441406 117.445313-117.441406 6.421875 0 12.714844.507812 18.847656 1.515625 55.898438 9.003906 98.59375 57.484375 98.59375 115.925781zm0 0"/></g><path d="m373.4375 232.753906c0 58.445313-42.695312 106.925782-98.59375 115.929688-55.898438-9.003906-98.59375-57.484375-98.59375-115.929688 0-35.984375 16.1875-68.195312 41.6875-89.742187 15.898438-13.445313 35.429688-22.722657 56.90625-26.183594 52.113281 8.386719 92.761719 51.109375 98.015625 104.21875.382813 3.851563.578125 7.761719.578125 11.707031zm0 0" fill="#f6ba97"/><path d="m255.996094 290.597656c-9.835938 0-19.667969-2.460937-28.632813-7.390625-2.527343-1.390625-3.453125-4.566406-2.0625-7.09375 1.390625-2.527343 4.566407-3.449219 7.09375-2.0625 14.777344 8.125 32.421875 8.125 47.199219 0 2.527344-1.390625 5.703125-.46875 7.09375 2.0625 1.390625 2.527344.46875 5.703125-2.0625 7.09375-8.960938 4.929688-18.796875 7.390625-28.628906 7.390625zm0 0" fill="#eaa27f"/><path d="m372.859375 221.046875-26.695313 8.265625-1.953124-12.988281-1.578126-10.488281-7.492187-49.824219h-89.046875l-28.640625-13.246094c15.945313-13.480469 35.535156-22.789063 57.082031-26.257813 44.273438 7.125 64.398438-25.976562 77.59375 15.953126 1.035156 3.3125 11.796875-15.441407 12.539063-12.015626.984375 4.417969 7.742187 96.003907 8.191406 100.601563zm0 0" fill="#151a1c"/><path d="m367.75 53.417969c28.332031 28.328125 28.332031 74.261719 0 102.59375-28.332031 28.328125-74.261719 28.328125-102.59375 0zm0 0" fill="#2f373b"/><path d="m265.15625 156.007812h-89.035156l-11.027344 73.304688-26.695312-8.265625 3.578124-71.828125c1.894532-37.992188 33.328126-67.785156 71.367188-67.644531l128.589844.484375 17 30.601562" fill="#2f373b"/><path d="m262.867188 81.761719c-35.578126 2.542969-64.144532 31.28125-65.953126 67.460937l-.335937 6.789063h-20.464844l-11.027343 73.300781-26.695313-8.265625 3.585937-71.824219c1.894532-38 33.324219-67.785156 71.363282-67.648437zm0 0" fill="#151a1c"/><path d="m230.984375 225.921875c0 7.355469-5.964844 13.320313-13.324219 13.320313s-13.324218-5.964844-13.324218-13.320313c0-7.359375 5.964843-13.324219 13.324218-13.324219s13.324219 5.964844 13.324219 13.324219zm0 0" fill="#2f373b"/><path d="m307.652344 225.921875c0 7.355469-5.964844 13.320313-13.324219 13.320313s-13.320313-5.964844-13.320313-13.320313c0-7.359375 5.960938-13.324219 13.320313-13.324219s13.324219 5.964844 13.324219 13.324219zm0 0" fill="#2f373b"/><path d="m228.265625 223.570312c0 3.152344-2.554687 5.707032-5.707031 5.707032s-5.707032-2.554688-5.707032-5.707032c0-3.152343 2.554688-5.707031 5.707032-5.707031s5.707031 2.554688 5.707031 5.707031zm0 0" fill="#fff"/><path d="m305.589844 223.570312c0 3.152344-2.554688 5.707032-5.707032 5.707032-3.15625 0-5.710937-2.554688-5.710937-5.707032 0-3.152343 2.554687-5.707031 5.710937-5.707031 3.152344 0 5.707032 2.554688 5.707032 5.707031zm0 0" fill="#fff"/><path d="m269.316406 259.464844h-26.644531c-3.175781 0-5.746094-2.574219-5.746094-5.746094 0-3.175781 2.570313-5.75 5.746094-5.75h26.644531c3.175782 0 5.746094 2.574219 5.746094 5.75 0 3.171875-2.570312 5.746094-5.746094 5.746094zm0 0" fill="#eaa27f"/><path d="m181.089844 316.992188c0 16.601562-4.429688 32.054687-12.042969 44.957031-8.570313 14.519531-21.164063 25.816406-36.011719 31.90625-7.890625 3.230469-12.992187 10.953125-12.992187 19.472656v33.359375c0 3.394531-1.375 6.472656-3.605469 8.699219-2.226562 2.230469-5.304688 3.605469-8.699219 3.605469-6.796875 0-12.304687-5.507813-12.304687-12.304688v-33.359375c0-8.519531-5.105469-16.242187-12.988282-19.472656-14.851562-6.089844-27.445312-17.386719-36.011718-31.90625-7.613282-12.902344-12.042969-28.355469-12.042969-44.957031 0-45.21875 32.835937-81.867188 73.34375-81.867188 40.511719 0 73.355469 36.648438 73.355469 81.867188zm0 0" fill="#f71c55"/><path d="m169.046875 361.949219c-8.570313 14.519531-21.164063 25.816406-36.011719 31.90625-7.890625 3.230469-12.992187 10.953125-12.992187 19.472656v33.359375c0 3.394531-1.375 6.472656-3.605469 8.699219-2.226562 2.230469-5.304688 3.605469-8.699219 3.605469-6.796875 0-12.304687-5.507813-12.304687-12.304688v-33.359375c0-8.519531-5.105469-16.242187-12.988282-19.472656-14.851562-6.089844-27.445312-17.386719-36.011718-31.90625zm0 0" fill="#ffd833"/><path d="m134.792969 438.1875v29.75c0 4.324219-1.035157 8.421875-2.875 12.023438-10.679688-5.921876-20.886719-12.589844-30.5625-19.933594-6.898438-5.238282-13.53125-10.816406-19.855469-16.71875v-5.121094c0-14.710938 11.933594-26.644531 26.648438-26.644531 3.507812 0 6.851562.679687 9.925781 1.910156 3.363281 1.351563 6.394531 3.367187 8.910156 5.894531 4.820313 4.828125 7.808594 11.484375 7.808594 18.839844zm0 0" fill="#eaa27f"/><path d="m134.792969 438.1875v29.75c0 4.324219-1.035157 8.421875-2.875 12.023438-10.679688-5.921876-20.886719-12.589844-30.5625-19.933594v-21.839844c0-11.203125 6.917969-20.792969 16.71875-24.734375 3.363281 1.351563 6.394531 3.367187 8.910156 5.894531 4.820313 4.828125 7.808594 11.484375 7.808594 18.839844zm0 0" fill="#f6ba97"/></svg>