<?xml version="1.0" encoding="iso-8859-1"?>
<!-- Generator: Adobe Illustrator 19.0.0, SVG Export Plug-In . SVG Version: 6.00 Build 0)  -->
<svg version="1.1" id="Capa_1" xmlns="http://www.w3.org/2000/svg" xmlns:xlink="http://www.w3.org/1999/xlink" x="0px" y="0px"
	 viewBox="0 0 459.755 459.755" style="enable-background:new 0 0 459.755 459.755;" xml:space="preserve">
<g>
	<polygon style="fill:#4DCFE0;" points="444.082,77.061 229.878,240.065 15.673,77.061 	"/>
	<polygon style="fill:#4DCFE0;" points="444.082,77.061 444.082,382.694 15.673,382.694 15.673,77.061 229.878,240.065 	"/>
</g>
<path style="fill:#3A2C51;" d="M444.082,61.388H15.673C6.792,61.388,0,68.18,0,77.061v305.633c0,8.882,6.792,15.673,15.673,15.673
	h428.408c8.882,0,15.673-6.792,15.673-15.673V77.061C459.755,68.18,452.963,61.388,444.082,61.388z M397.584,92.735L229.878,220.212
	L62.171,92.735H397.584z M31.347,367.02v-258.09l189.127,143.673c2.612,2.09,6.269,3.135,9.404,3.135s6.792-1.045,9.404-3.135
	l189.127-143.673v258.09H31.347z"/>
<g>
</g>
<g>
</g>
<g>
</g>
<g>
</g>
<g>
</g>
<g>
</g>
<g>
</g>
<g>
</g>
<g>
</g>
<g>
</g>
<g>
</g>
<g>
</g>
<g>
</g>
<g>
</g>
<g>
</g>
</svg>
