<?xml version="1.0" standalone="no"?>
<!DOCTYPE svg PUBLIC "-//W3C//DTD SVG 20010904//EN"
 "http://www.w3.org/TR/2001/REC-SVG-20010904/DTD/svg10.dtd">
<svg version="1.0" xmlns="http://www.w3.org/2000/svg"
 width="840.000000pt" height="859.000000pt" viewBox="0 0 840.000000 859.000000"
 preserveAspectRatio="xMidYMid meet">

<g transform="translate(0.000000,859.000000) scale(0.100000,-0.100000)"
fill="#fff" stroke="white" stroke-width="100">
<path d="M4065 8131 c-6 -5 -89 -12 -185 -15 -204 -7 -346 -21 -600 -61 -58
-9 -126 -19 -152 -22 -27 -3 -48 -9 -48 -14 0 -5 -18 -9 -40 -9 -22 0 -40 -4
-40 -9 0 -5 -17 -11 -37 -14 -21 -3 -56 -10 -78 -16 -22 -5 -63 -16 -92 -23
-28 -7 -55 -16 -59 -21 -4 -4 -20 -7 -35 -7 -15 0 -31 -4 -34 -10 -3 -5 -19
-10 -36 -10 -16 0 -29 -4 -29 -10 0 -5 -9 -10 -20 -10 -11 0 -28 -4 -38 -9 -9
-5 -35 -14 -57 -21 -22 -7 -56 -19 -75 -27 -19 -8 -46 -20 -60 -25 -14 -6 -33
-14 -42 -19 -10 -5 -27 -9 -38 -9 -11 0 -20 -4 -20 -10 0 -5 -6 -10 -12 -10
-11 0 -79 -30 -140 -61 -10 -5 -24 -9 -32 -9 -8 0 -16 -3 -18 -8 -1 -4 -39
-25 -83 -47 -44 -21 -81 -43 -83 -47 -2 -4 -10 -8 -18 -8 -8 0 -14 -4 -14 -10
0 -5 -9 -10 -20 -10 -11 0 -20 -3 -20 -8 0 -4 -20 -16 -45 -27 -25 -11 -45
-23 -45 -27 0 -5 -5 -8 -11 -8 -6 0 -30 -13 -54 -30 -24 -16 -48 -30 -54 -30
-6 0 -11 -3 -11 -8 0 -4 -16 -16 -35 -26 -19 -11 -35 -23 -35 -28 0 -4 -8 -8
-18 -8 -10 0 -24 -9 -32 -20 -8 -11 -18 -20 -23 -20 -5 0 -14 -6 -22 -12 -7
-7 -25 -22 -39 -32 -15 -11 -39 -30 -54 -43 -15 -13 -30 -23 -34 -23 -7 0 -43
-28 -74 -57 -7 -7 -16 -13 -19 -13 -4 0 -19 -13 -33 -28 -15 -15 -45 -41 -67
-57 -46 -35 -345 -333 -345 -345 0 -5 -17 -26 -37 -48 -21 -21 -47 -51 -58
-67 -11 -15 -30 -38 -42 -51 -13 -13 -23 -26 -23 -29 0 -3 -5 -11 -10 -18 -6
-7 -27 -37 -47 -67 -20 -30 -40 -56 -45 -58 -4 -2 -8 -8 -8 -13 0 -12 -52 -93
-62 -97 -5 -2 -8 -12 -8 -23 0 -10 -4 -19 -10 -19 -5 0 -10 -7 -10 -15 0 -8
-4 -15 -10 -15 -5 0 -10 -9 -10 -19 0 -11 -3 -21 -7 -23 -10 -4 -83 -151 -83
-166 0 -7 -4 -12 -10 -12 -5 0 -10 -9 -10 -20 0 -11 -4 -20 -8 -20 -4 0 -17
-29 -27 -65 -11 -36 -23 -65 -27 -65 -5 0 -8 -11 -8 -24 0 -14 -5 -28 -10 -31
-6 -3 -10 -17 -10 -31 0 -13 -4 -24 -10 -24 -5 0 -10 -13 -10 -30 0 -16 -4
-30 -10 -30 -5 0 -10 -14 -10 -30 0 -17 -4 -38 -9 -48 -5 -9 -17 -55 -26 -102
-9 -47 -20 -99 -26 -116 -5 -17 -9 -51 -9 -77 0 -25 -4 -49 -10 -52 -6 -4 -10
-53 -10 -116 0 -66 -4 -109 -10 -109 -13 0 -13 -232 -1 -245 6 -6 12 -57 14
-115 6 -131 23 -239 63 -400 8 -36 18 -80 21 -97 3 -18 9 -33 14 -33 5 0 9
-16 9 -35 0 -19 5 -35 10 -35 6 0 10 -8 10 -18 0 -10 9 -37 20 -60 11 -23 23
-56 27 -72 3 -17 9 -30 14 -30 5 0 9 -8 9 -17 0 -9 20 -59 45 -110 25 -50 45
-97 45 -103 0 -5 5 -10 10 -10 6 0 10 -9 10 -20 0 -11 5 -20 10 -20 6 0 10 -7
10 -15 0 -8 5 -15 10 -15 6 0 10 -9 10 -20 0 -11 3 -20 8 -20 4 0 20 -25 36
-55 16 -30 32 -55 37 -55 5 0 9 -9 9 -19 0 -11 4 -21 8 -23 5 -1 25 -28 45
-58 20 -30 41 -60 47 -67 5 -7 10 -15 10 -19 0 -4 8 -14 18 -23 9 -9 30 -34
47 -56 16 -22 36 -47 45 -55 8 -8 29 -33 45 -55 39 -52 318 -331 370 -370 22
-16 47 -37 55 -45 8 -9 33 -29 55 -45 22 -17 47 -38 56 -47 9 -10 19 -18 23
-18 4 0 12 -5 19 -10 7 -6 37 -27 67 -47 30 -20 63 -45 74 -55 11 -10 26 -18
33 -18 7 0 13 -4 13 -10 0 -5 11 -12 25 -16 14 -3 25 -10 25 -14 0 -4 14 -13
30 -20 17 -7 30 -16 30 -21 0 -5 7 -9 15 -9 8 0 15 -3 15 -7 0 -5 18 -17 40
-27 22 -11 40 -22 40 -25 0 -3 13 -12 28 -18 15 -7 52 -34 81 -60 l54 -47 -6
-76 c-5 -70 -17 -120 -38 -162 -5 -10 -9 -27 -9 -37 0 -11 -4 -23 -10 -26 -5
-3 -10 -19 -10 -35 0 -16 -4 -31 -9 -34 -5 -3 -11 -20 -14 -38 -3 -18 -17 -78
-32 -133 -15 -55 -29 -115 -32 -133 -3 -18 -9 -35 -14 -38 -5 -3 -9 -18 -9
-35 0 -16 -4 -29 -9 -29 -5 0 -11 -17 -14 -37 -4 -39 -39 -183 -57 -239 -6
-17 -10 -40 -10 -52 0 -11 -5 -24 -10 -27 -6 -3 -10 -22 -10 -41 0 -19 -4 -34
-9 -34 -10 0 -22 -74 -22 -135 0 -65 12 -145 22 -145 5 0 9 -19 9 -42 0 -60
10 -72 51 -64 19 4 57 11 84 16 96 16 215 62 215 82 0 4 5 8 10 8 6 0 16 5 23
10 33 28 118 80 130 80 7 0 19 9 27 20 8 11 20 20 27 20 7 0 13 4 13 8 0 5 12
15 28 23 15 8 48 29 73 46 26 18 51 33 58 33 6 0 11 4 11 8 0 5 16 17 35 28
19 10 35 22 35 26 0 5 6 8 13 8 7 0 23 9 35 20 12 11 24 20 27 20 3 0 11 5 18
10 7 6 37 27 67 47 30 20 57 40 58 45 2 4 11 8 21 8 9 0 23 9 31 20 8 11 18
20 23 20 5 0 23 11 41 25 18 14 38 25 44 25 6 0 12 3 14 8 5 12 105 82 117 82
6 0 11 5 11 10 0 6 5 10 11 10 7 0 19 8 28 18 9 10 40 33 69 51 30 19 59 39
65 46 7 6 37 28 67 48 30 20 60 41 65 45 6 4 25 15 43 22 17 8 32 18 32 22 0
5 9 8 20 8 11 0 20 4 20 8 0 10 87 42 113 42 9 0 17 5 17 10 0 6 25 10 55 10
32 0 55 4 55 10 0 7 19 10 45 9 25 -2 45 -6 45 -11 0 -4 25 -8 55 -8 30 0 55
-4 55 -10 0 -6 138 -10 395 -10 257 0 395 4 395 10 0 6 47 10 120 10 66 0 120
4 120 9 0 4 35 9 77 10 42 1 82 5 87 9 6 4 38 10 71 14 33 4 83 11 110 17 28
5 82 14 120 21 39 6 78 16 87 21 10 5 34 9 53 9 19 0 35 5 35 10 0 6 14 10 30
10 17 0 38 4 48 9 15 8 72 26 230 73 23 7 42 16 42 20 0 5 9 8 20 8 11 0 28 4
38 9 46 24 134 61 147 61 7 0 17 5 20 10 3 6 15 10 26 10 10 0 19 5 19 10 0 6
9 10 20 10 11 0 20 5 20 10 0 6 5 10 11 10 16 0 203 93 207 102 2 5 10 8 17 8
7 0 41 16 75 35 34 19 68 35 76 35 8 0 14 4 14 8 0 5 12 15 28 23 15 8 29 16
32 19 3 3 24 14 48 24 23 11 42 23 42 28 0 4 9 8 20 8 11 0 20 5 20 10 0 6 7
10 15 10 8 0 15 5 15 10 0 6 6 10 13 10 7 0 22 8 33 19 11 10 30 22 42 25 12
4 22 12 22 17 0 5 8 9 18 9 10 0 24 9 32 20 8 11 20 20 27 20 7 0 13 4 13 8 0
5 12 15 28 23 15 8 32 19 39 24 7 6 19 16 27 23 8 6 18 12 21 12 3 0 16 10 29
22 13 13 47 39 74 58 28 19 51 38 52 43 0 4 5 7 11 7 6 0 31 20 56 45 24 25
48 45 52 45 11 0 229 218 276 276 22 27 49 58 60 70 11 11 29 33 40 48 11 16
30 39 43 52 12 13 22 28 22 34 0 5 5 10 10 10 6 0 10 7 10 15 0 8 4 15 8 15 5
0 17 16 28 35 10 19 22 35 26 35 5 0 8 7 8 15 0 8 4 15 8 15 5 0 15 12 23 28
8 15 18 32 22 37 17 22 77 128 77 136 0 5 5 9 10 9 6 0 10 7 10 15 0 8 5 15
10 15 6 0 10 7 10 15 0 18 32 89 43 93 4 2 7 12 7 23 0 10 5 19 10 19 6 0 10
9 10 20 0 11 5 20 10 20 6 0 10 11 10 25 0 14 5 25 10 25 6 0 10 9 10 19 0 11
4 23 10 26 6 3 10 14 10 23 0 9 7 30 15 46 8 15 15 37 15 47 0 10 5 21 10 24
6 3 10 17 10 31 0 13 5 24 10 24 6 0 10 16 10 35 0 19 4 35 9 35 5 0 11 15 14
33 3 17 13 64 22 102 16 70 26 126 47 265 15 96 15 582 0 675 -6 39 -15 97
-21 130 -5 33 -17 92 -26 130 -9 39 -19 87 -22 108 -3 20 -9 40 -14 43 -5 3
-9 16 -9 30 0 13 -4 24 -10 24 -5 0 -10 14 -10 30 0 17 -4 30 -10 30 -5 0 -10
8 -10 18 0 32 -38 126 -116 288 -24 50 -44 96 -44 103 0 6 -4 11 -10 11 -5 0
-10 9 -10 20 0 11 -4 20 -10 20 -5 0 -10 7 -10 15 0 8 -4 15 -8 15 -4 0 -21
27 -37 60 -17 33 -33 60 -37 60 -5 0 -8 7 -8 15 0 8 -4 15 -10 15 -5 0 -10 4
-10 10 0 8 -45 74 -80 117 -6 7 -10 15 -10 18 0 3 -11 17 -25 31 -14 14 -25
29 -25 34 0 4 -18 28 -40 52 -22 23 -40 47 -40 51 0 11 -377 387 -413 412 -16
11 -41 31 -56 45 -16 14 -40 34 -56 45 -15 11 -38 30 -51 43 -13 12 -26 22
-29 22 -3 0 -17 10 -30 23 -13 12 -49 38 -79 57 -31 19 -56 38 -56 43 0 4 -7
7 -15 7 -8 0 -15 3 -15 8 0 4 -13 13 -29 20 -16 7 -42 24 -57 37 -16 14 -35
25 -41 25 -7 0 -13 5 -13 10 0 6 -6 10 -14 10 -8 0 -16 4 -18 8 -1 4 -34 25
-73 47 -38 21 -72 41 -75 44 -3 3 -41 24 -85 45 -44 22 -92 48 -107 58 -14 10
-33 18 -42 18 -9 0 -16 5 -16 10 0 6 -7 10 -15 10 -8 0 -23 4 -33 10 -38 21
-134 60 -147 60 -8 0 -15 5 -15 10 0 6 -9 10 -20 10 -11 0 -20 5 -20 10 0 6
-10 10 -23 10 -13 0 -27 4 -33 9 -5 4 -34 16 -64 26 -30 9 -63 21 -72 26 -10
5 -27 9 -38 9 -11 0 -20 5 -20 10 0 6 -9 10 -20 10 -11 0 -28 4 -38 9 -9 5
-35 14 -57 19 -22 6 -63 18 -92 26 -28 9 -61 16 -72 16 -11 0 -22 4 -25 9 -6
8 -31 14 -118 27 -21 4 -38 10 -38 14 0 4 -21 10 -47 13 -27 2 -93 12 -148 22
-227 39 -378 55 -572 61 -91 3 -163 9 -163 15 0 12 -343 12 -355 0z m650 -119
c72 -5 164 -15 205 -21 114 -16 151 -21 200 -27 25 -3 49 -10 55 -15 5 -5 28
-9 51 -9 24 0 46 -4 49 -10 3 -5 23 -10 44 -10 21 0 41 -3 45 -7 7 -7 87 -27
164 -40 18 -3 35 -9 38 -14 3 -5 18 -9 35 -9 16 0 29 -4 29 -10 0 -5 16 -10
35 -10 19 0 35 -4 35 -10 0 -5 9 -10 20 -10 11 0 28 -4 38 -9 9 -5 44 -17 77
-27 33 -10 64 -22 69 -26 6 -4 20 -8 33 -8 13 0 23 -4 23 -10 0 -5 11 -10 25
-10 14 0 25 -4 25 -10 0 -5 9 -10 20 -10 11 0 20 -4 20 -9 0 -5 14 -11 30 -15
17 -3 76 -28 133 -54 56 -27 120 -58 142 -68 22 -10 42 -20 45 -23 3 -4 19
-13 35 -21 17 -8 32 -17 35 -20 3 -3 30 -18 60 -34 30 -16 67 -37 82 -48 14
-10 31 -18 37 -18 6 0 11 -4 11 -10 0 -5 7 -10 15 -10 8 0 15 -4 15 -8 0 -5
15 -16 33 -25 47 -25 70 -40 88 -59 9 -10 24 -18 33 -18 9 0 16 -4 16 -8 0 -4
15 -16 33 -27 17 -10 39 -27 48 -37 9 -10 21 -18 26 -18 5 0 18 -8 29 -17 10
-10 37 -31 59 -47 22 -17 47 -38 56 -48 9 -10 19 -18 23 -18 4 0 17 -10 30
-22 47 -45 97 -88 102 -88 9 0 276 -272 299 -304 11 -16 35 -44 53 -62 17 -18
32 -36 32 -39 0 -4 6 -12 13 -19 25 -27 57 -66 57 -71 0 -3 9 -15 20 -27 11
-12 20 -28 20 -35 0 -7 4 -13 8 -13 5 0 17 -16 28 -35 10 -19 22 -35 26 -35 5
0 8 -7 8 -16 0 -9 8 -24 18 -33 17 -16 47 -67 79 -133 10 -21 21 -38 25 -38 5
0 8 -9 8 -20 0 -11 5 -20 10 -20 6 0 10 -9 10 -20 0 -11 5 -20 10 -20 6 0 10
-5 10 -10 0 -6 11 -33 25 -62 14 -28 25 -60 25 -70 0 -10 5 -18 10 -18 6 0 10
-9 10 -20 0 -11 5 -20 10 -20 6 0 10 -11 10 -25 0 -14 4 -25 8 -25 4 0 15 -28
25 -62 9 -35 22 -77 27 -94 6 -17 10 -38 10 -47 0 -9 5 -17 10 -17 6 0 10 -15
10 -34 0 -19 5 -38 10 -41 6 -3 10 -19 10 -35 0 -16 4 -39 9 -52 27 -68 53
-325 53 -518 0 -141 -17 -365 -31 -417 -6 -21 -11 -52 -11 -70 0 -17 -5 -35
-10 -38 -5 -3 -10 -24 -10 -46 0 -21 -4 -39 -10 -39 -5 0 -10 -16 -10 -35 0
-19 -4 -35 -10 -35 -5 0 -10 -10 -10 -22 0 -13 -18 -75 -41 -138 -22 -63 -43
-125 -46 -138 -3 -12 -9 -22 -14 -22 -5 0 -9 -11 -9 -25 0 -14 -4 -25 -10 -25
-5 0 -10 -6 -10 -12 0 -16 -72 -162 -82 -166 -5 -2 -8 -12 -8 -23 0 -10 -4
-19 -8 -19 -5 0 -17 -19 -27 -42 -10 -24 -27 -50 -37 -59 -10 -9 -18 -24 -18
-33 0 -9 -4 -16 -10 -16 -5 0 -10 -7 -10 -15 0 -8 -4 -15 -9 -15 -5 0 -14 -14
-22 -31 -7 -18 -23 -42 -36 -55 -13 -13 -23 -26 -23 -30 0 -4 -8 -14 -19 -23
-10 -9 -25 -29 -34 -46 -8 -16 -29 -43 -46 -59 -17 -17 -31 -34 -31 -40 0 -12
-396 -406 -409 -406 -5 0 -27 -17 -48 -37 -22 -21 -56 -49 -76 -63 -20 -14
-37 -28 -37 -32 0 -5 -7 -8 -15 -8 -8 0 -15 -4 -15 -8 0 -5 -12 -15 -27 -23
-16 -8 -39 -24 -53 -36 -14 -13 -30 -23 -37 -23 -7 0 -13 -4 -13 -9 0 -5 -9
-13 -20 -16 -11 -3 -26 -12 -32 -19 -7 -7 -35 -25 -63 -41 -27 -16 -52 -32
-55 -35 -3 -3 -18 -12 -35 -20 -16 -8 -32 -18 -35 -21 -3 -3 -36 -23 -75 -44
-38 -22 -71 -43 -73 -47 -2 -4 -12 -8 -23 -8 -10 0 -19 -3 -19 -7 0 -5 -32
-21 -70 -38 -38 -16 -70 -33 -70 -37 0 -5 -9 -8 -20 -8 -11 0 -20 -4 -20 -10
0 -5 -7 -10 -15 -10 -8 0 -15 -4 -15 -10 0 -5 -9 -10 -20 -10 -11 0 -20 -4
-20 -10 0 -5 -6 -10 -14 -10 -7 0 -34 -11 -60 -25 -26 -14 -54 -25 -62 -25 -7
0 -14 -4 -14 -10 0 -5 -9 -10 -19 -10 -11 0 -23 -4 -26 -10 -3 -5 -15 -10 -26
-10 -10 0 -19 -4 -19 -8 0 -4 -29 -17 -65 -27 -36 -11 -65 -23 -65 -27 0 -5
-11 -8 -24 -8 -14 0 -28 -4 -31 -10 -3 -5 -17 -10 -31 -10 -13 0 -24 -4 -24
-10 0 -5 -9 -10 -20 -10 -11 0 -28 -4 -38 -9 -9 -5 -44 -17 -77 -25 -33 -9
-74 -21 -91 -26 -17 -6 -42 -10 -57 -10 -15 0 -27 -4 -27 -10 0 -5 -18 -10
-40 -10 -22 0 -40 -4 -40 -10 0 -5 -17 -10 -38 -10 -21 0 -42 -4 -48 -9 -5 -5
-29 -11 -54 -14 -25 -3 -94 -13 -155 -22 -60 -10 -153 -19 -205 -22 -52 -3
-99 -9 -104 -14 -6 -5 -147 -9 -321 -9 -217 0 -314 -3 -322 -11 -17 -17 -293
4 -293 22 0 13 -267 12 -275 -1 -3 -5 -22 -10 -41 -10 -19 0 -34 -4 -34 -10 0
-5 -11 -10 -25 -10 -14 0 -25 -4 -25 -10 0 -5 -7 -10 -15 -10 -18 0 -89 -32
-93 -42 -2 -5 -12 -8 -23 -8 -10 0 -19 -4 -19 -10 0 -5 -7 -10 -15 -10 -8 0
-15 -4 -15 -10 0 -5 -6 -10 -13 -10 -7 0 -22 -8 -33 -18 -10 -10 -34 -27 -51
-37 -18 -11 -33 -23 -33 -27 0 -4 -7 -8 -16 -8 -9 0 -24 -8 -33 -18 -19 -21
-116 -92 -126 -92 -3 0 -12 -6 -20 -12 -35 -34 -129 -98 -143 -98 -4 0 -14 -9
-22 -20 -8 -11 -18 -20 -22 -20 -7 0 -72 -41 -94 -59 -6 -4 -37 -26 -70 -47
-32 -22 -60 -42 -62 -46 -2 -5 -10 -8 -18 -8 -8 0 -14 -4 -14 -10 0 -5 -7 -10
-15 -10 -8 0 -15 -4 -15 -10 0 -5 -6 -10 -14 -10 -8 0 -16 -3 -18 -7 -4 -10
-85 -63 -96 -63 -4 0 -14 -9 -22 -20 -8 -11 -19 -20 -24 -20 -5 0 -29 -15 -55
-33 -25 -17 -59 -39 -76 -47 -16 -8 -37 -22 -45 -30 -18 -18 -43 -34 -88 -57
-17 -9 -32 -20 -32 -25 0 -4 -7 -8 -15 -8 -8 0 -15 -4 -15 -10 0 -5 -7 -10
-15 -10 -8 0 -15 -4 -15 -10 0 -5 -7 -10 -15 -10 -8 0 -15 -4 -15 -8 0 -10
-89 -32 -126 -32 -20 0 -24 5 -24 29 0 17 -5 33 -10 36 -12 8 -13 125 -1 125
5 0 11 19 14 43 3 23 13 71 22 107 9 36 19 82 22 103 3 20 9 40 14 43 5 3 9
21 9 40 0 19 5 34 10 34 6 0 10 16 10 35 0 19 5 35 10 35 6 0 10 12 10 27 0
15 4 40 9 57 5 17 17 60 26 96 9 36 21 73 26 82 5 10 9 31 9 47 0 17 5 33 10
36 6 3 10 19 10 36 0 16 5 29 10 29 6 0 10 11 10 25 0 14 4 33 9 43 10 21 32
105 39 150 2 18 8 35 13 38 5 3 9 16 9 29 0 13 5 27 10 30 20 12 11 122 -13
164 -35 61 -70 101 -89 101 -10 0 -18 4 -18 8 0 5 -19 19 -43 32 -23 13 -63
39 -88 57 -26 18 -51 33 -57 33 -6 0 -12 3 -14 8 -4 9 -85 62 -96 62 -4 0 -14
9 -22 20 -8 11 -18 20 -22 20 -5 0 -27 12 -51 28 -41 26 -56 38 -99 74 -12 10
-25 18 -29 18 -4 0 -14 6 -21 13 -7 7 -31 26 -53 42 -22 17 -60 49 -85 72 -25
24 -48 43 -53 43 -9 0 -267 258 -267 268 0 4 -24 32 -53 63 -28 31 -61 68 -72
83 -11 15 -28 37 -37 48 -10 12 -18 24 -18 28 0 4 -8 16 -17 28 -37 43 -49 58
-76 99 -15 24 -27 46 -27 51 0 4 -9 14 -20 22 -11 8 -20 22 -20 32 0 10 -4 18
-10 18 -5 0 -10 6 -10 14 0 7 -7 19 -15 26 -8 7 -15 21 -15 31 0 11 -4 19 -10
19 -5 0 -10 7 -10 15 0 8 -4 15 -10 15 -5 0 -10 9 -10 20 0 11 -4 20 -10 20
-5 0 -10 9 -10 19 0 11 -3 21 -7 23 -11 4 -43 75 -43 93 0 8 -4 15 -10 15 -5
0 -10 9 -10 20 0 11 -4 20 -10 20 -5 0 -10 11 -10 25 0 14 -4 25 -10 25 -5 0
-10 9 -10 20 0 11 -4 20 -10 20 -5 0 -10 7 -10 16 0 19 -28 112 -41 136 -5 10
-9 29 -9 43 0 14 -4 25 -10 25 -5 0 -10 16 -10 35 0 19 -4 35 -9 35 -5 0 -11
17 -14 38 -3 20 -12 69 -21 107 -9 39 -19 108 -22 155 -3 47 -10 94 -15 105
-12 25 -5 423 9 555 11 101 28 190 43 228 5 13 9 36 9 52 0 17 5 30 10 30 6 0
10 14 10 30 0 17 4 38 9 48 5 9 21 58 37 107 15 50 31 94 36 99 4 6 8 18 8 28
0 10 5 18 10 18 6 0 10 11 10 25 0 14 5 25 10 25 6 0 10 7 10 15 0 8 4 23 9
33 6 9 22 44 37 77 16 33 32 62 36 63 4 2 8 12 8 22 0 10 3 20 8 22 4 2 17 23
30 47 42 81 57 106 74 122 10 9 18 24 18 33 0 9 4 16 8 16 4 0 16 15 27 33 10
17 21 34 25 37 3 3 22 28 40 55 19 28 39 55 45 61 27 29 55 65 55 70 0 3 29
36 65 72 36 36 65 69 65 74 0 10 180 188 191 188 4 0 32 24 62 53 55 54 147
131 187 157 12 8 28 21 36 28 7 6 16 12 20 12 3 0 14 8 23 18 9 10 31 27 49
37 17 11 32 23 32 27 0 4 7 8 15 8 8 0 15 5 15 10 0 6 6 10 14 10 8 0 16 4 18
9 4 11 144 101 157 101 6 0 11 5 11 10 0 6 7 10 15 10 8 0 15 3 15 8 0 4 35
25 78 47 42 22 79 42 82 45 3 3 50 28 105 55 55 28 102 53 103 58 2 4 15 7 28
7 13 0 24 5 24 10 0 6 6 10 13 10 7 0 37 11 65 25 29 14 61 25 72 25 11 0 20
5 20 10 0 6 9 10 20 10 11 0 20 5 20 10 0 6 11 10 25 10 14 0 25 5 25 10 0 6
9 10 20 10 11 0 28 4 38 9 9 5 58 21 107 36 50 15 98 31 107 36 10 5 27 9 38
9 11 0 20 4 20 9 0 5 17 11 38 14 20 3 71 14 112 26 41 11 87 21 102 21 15 0
30 5 33 10 3 6 24 10 46 10 21 0 39 4 39 9 0 5 26 12 58 14 31 3 84 11 117 17
33 6 92 15 130 20 39 5 104 14 145 19 41 6 116 11 165 11 50 0 97 5 105 10 19
12 659 6 845 -8z"/>
<path d="M3233 5817 c-24 -5 -43 -14 -43 -18 0 -5 -8 -9 -18 -9 -10 0 -24 -9
-32 -20 -8 -11 -20 -20 -27 -20 -7 0 -13 -4 -13 -9 0 -4 -12 -21 -28 -37 -25
-27 -49 -71 -89 -164 -8 -19 -19 -43 -24 -52 -5 -10 -9 -25 -9 -33 0 -8 -4
-15 -10 -15 -5 0 -10 -9 -10 -20 0 -10 -4 -29 -9 -42 -5 -13 -17 -43 -26 -68
-39 -102 -55 -140 -66 -162 -5 -10 -9 -27 -9 -38 0 -11 -4 -20 -10 -20 -5 0
-10 -9 -10 -20 0 -17 -14 -57 -40 -110 -3 -8 -13 -36 -21 -62 -7 -27 -17 -48
-21 -48 -4 0 -8 -11 -8 -24 0 -13 -3 -26 -7 -28 -5 -1 -21 -45 -38 -95 -16
-51 -33 -93 -37 -93 -5 0 -8 -11 -8 -25 0 -14 -4 -25 -10 -25 -5 0 -10 -9 -10
-20 0 -11 -4 -28 -9 -38 -15 -26 -61 -156 -61 -170 0 -6 -4 -12 -10 -12 -5 0
-10 -11 -10 -25 0 -14 -4 -25 -10 -25 -5 0 -10 -10 -10 -23 0 -13 -3 -27 -6
-30 -10 -10 -63 -169 -64 -189 0 -10 -4 -18 -10 -18 -11 0 -14 -87 -2 -92 8
-4 62 -85 62 -94 0 -17 69 -64 108 -74 34 -8 54 -7 100 5 31 9 65 20 74 25 10
6 25 10 33 10 8 0 15 4 15 8 0 5 20 19 45 32 25 13 45 29 45 37 0 7 5 13 10
13 6 0 10 14 10 30 0 17 5 30 10 30 6 0 10 13 10 29 0 75 49 145 108 155 21 3
42 5 47 5 6 -1 105 -3 220 -6 151 -3 221 -1 248 8 30 10 43 10 58 1 10 -7 29
-12 41 -12 28 -1 68 -32 68 -54 0 -9 5 -16 10 -16 6 0 10 -9 10 -20 0 -11 5
-20 10 -20 6 0 10 -13 10 -29 0 -27 13 -65 45 -136 24 -54 44 -71 137 -116 24
-12 115 -11 123 1 3 6 15 10 26 10 40 0 139 63 139 89 0 6 5 11 10 11 6 0 10
11 10 24 0 14 5 28 10 31 6 3 10 28 10 55 0 27 -4 52 -10 55 -5 3 -10 22 -10
41 0 19 -4 34 -10 34 -5 0 -10 9 -10 19 0 11 -4 23 -10 26 -5 3 -10 16 -10 29
0 12 -4 26 -8 32 -5 5 -17 36 -27 69 -11 33 -23 64 -27 70 -4 5 -8 19 -8 32 0
13 -4 23 -10 23 -5 0 -10 11 -10 25 0 14 -4 25 -10 25 -5 0 -10 10 -10 23 0
13 -4 27 -9 33 -5 5 -16 34 -25 64 -10 30 -22 66 -28 80 -6 14 -15 36 -21 50
-5 14 -13 33 -18 42 -5 10 -9 26 -9 37 0 11 -3 21 -7 23 -10 4 -63 159 -63
182 0 9 -4 16 -10 16 -5 0 -10 7 -10 15 0 8 -4 24 -10 35 -5 11 -14 29 -20 40
-5 11 -10 26 -10 34 0 7 -7 27 -15 42 -8 16 -15 39 -15 52 0 12 -4 22 -10 22
-5 0 -10 11 -10 25 0 14 -4 25 -10 25 -5 0 -10 14 -10 30 0 17 -4 30 -10 30
-5 0 -10 8 -10 18 0 10 -4 22 -8 28 -5 5 -17 36 -26 69 -9 33 -21 68 -27 77
-5 10 -9 25 -9 33 0 8 -4 15 -10 15 -5 0 -10 9 -10 20 0 11 -4 20 -8 20 -5 0
-14 16 -22 35 -8 19 -16 35 -20 35 -3 0 -14 16 -24 35 -11 19 -32 40 -47 47
-16 7 -29 16 -29 20 0 5 -7 8 -15 8 -8 0 -15 4 -15 9 0 25 -186 38 -267 18z
m215 -107 c2 -6 8 -10 13 -10 30 0 129 -127 129 -166 0 -8 5 -14 10 -14 6 0
10 -13 10 -30 0 -16 5 -30 10 -30 6 0 10 -11 10 -25 0 -14 3 -25 8 -25 4 0 20
-43 37 -95 16 -52 33 -95 37 -95 5 0 8 -11 8 -25 0 -14 5 -25 10 -25 6 0 10
-13 10 -30 0 -16 5 -30 10 -30 6 0 10 -11 10 -23 0 -13 3 -27 7 -31 13 -12 43
-100 43 -123 0 -13 5 -23 10 -23 6 0 10 -7 10 -15 0 -8 4 -23 9 -33 10 -20 31
-69 41 -97 4 -11 13 -36 20 -55 7 -19 15 -47 17 -62 3 -16 9 -28 14 -28 5 0 9
-9 9 -20 0 -11 4 -28 9 -38 26 -52 81 -203 81 -225 0 -9 5 -17 10 -17 6 0 10
-11 10 -25 0 -14 5 -25 10 -25 6 0 10 -9 10 -20 0 -11 4 -28 9 -38 39 -77 81
-214 81 -264 0 -38 -5 -52 -30 -76 -33 -33 -115 -58 -151 -47 -26 8 -99 78
-99 94 0 6 -4 19 -9 29 -5 9 -14 39 -20 67 -15 64 -40 115 -65 138 -48 42 -62
53 -87 64 -33 14 -709 17 -709 2 0 -5 -7 -9 -15 -9 -31 0 -115 -84 -115 -115
0 -8 -4 -15 -10 -15 -5 0 -10 -16 -10 -35 0 -19 -4 -35 -10 -35 -5 0 -10 -15
-10 -33 0 -35 -36 -77 -65 -77 -8 0 -15 -3 -15 -8 0 -4 -15 -13 -32 -20 -18
-7 -41 -18 -50 -23 -30 -16 -49 -10 -82 24 -57 57 -68 81 -61 131 4 25 11 46
16 46 5 0 9 11 9 24 0 14 5 28 10 31 6 3 10 17 10 31 0 13 5 24 10 24 6 0 10
11 10 24 0 13 3 26 8 28 4 2 21 45 37 95 17 51 33 93 38 93 4 0 7 11 7 25 0
14 5 25 10 25 6 0 10 10 10 23 0 13 4 27 8 32 5 6 17 37 27 70 11 33 23 64 27
70 4 5 8 17 8 27 0 10 5 18 10 18 6 0 10 11 10 24 0 14 5 28 10 31 6 3 10 17
10 31 0 13 3 24 8 24 4 0 16 28 26 63 19 60 24 74 46 117 6 11 10 29 10 40 0
11 5 20 10 20 6 0 10 9 10 20 0 11 5 20 10 20 6 0 10 8 10 18 0 26 33 119 61
174 5 10 9 27 9 38 0 11 5 20 10 20 6 0 10 9 10 20 0 11 5 20 10 20 6 0 10 13
10 29 0 17 5 33 10 36 6 3 10 13 10 22 0 19 51 127 62 131 4 2 8 10 8 17 0 18
77 95 95 95 8 0 15 4 15 9 0 6 15 12 33 14 49 7 172 -2 175 -13z"/>
<path d="M3253 5308 c-15 -32 -43 -124 -43 -142 0 -9 -4 -16 -10 -16 -5 0 -10
-13 -10 -30 0 -16 -4 -30 -10 -30 -5 0 -10 -11 -10 -25 0 -14 -4 -25 -10 -25
-5 0 -10 -13 -10 -30 0 -16 -4 -30 -10 -30 -5 0 -10 -8 -10 -18 0 -10 -11 -51
-25 -92 -13 -41 -25 -83 -25 -92 0 -10 -4 -18 -10 -18 -5 0 -10 -9 -10 -20 0
-11 -4 -28 -9 -38 -5 -9 -21 -57 -36 -107 -15 -49 -31 -98 -36 -107 -9 -17 11
-18 346 -18 230 0 355 4 355 10 0 6 -4 10 -10 10 -5 0 -10 9 -10 20 0 11 -4
28 -9 38 -14 27 -61 178 -61 196 0 9 -4 16 -10 16 -5 0 -10 14 -10 30 0 17 -4
30 -10 30 -5 0 -10 8 -10 18 0 9 -16 62 -35 117 -19 55 -35 108 -35 118 0 9
-4 17 -10 17 -5 0 -10 11 -10 24 0 14 -4 28 -10 31 -5 3 -10 17 -10 30 0 13
-4 27 -10 30 -5 3 -10 14 -10 23 0 9 -7 36 -16 59 l-17 43 -62 0 c-54 0 -63
-3 -72 -22z m87 -165 c6 -16 15 -36 20 -45 6 -10 10 -27 10 -37 0 -11 5 -23
10 -26 6 -3 10 -16 10 -29 0 -12 4 -26 8 -31 5 -6 21 -50 36 -100 16 -49 32
-98 37 -107 5 -10 9 -27 9 -38 0 -11 5 -20 10 -20 6 0 10 -13 10 -29 0 -17 5
-33 10 -36 6 -3 10 -19 10 -36 l0 -29 -195 0 -195 0 0 30 c0 17 5 30 10 30 6
0 10 14 10 30 0 17 4 38 9 48 5 9 17 42 26 72 9 30 20 64 24 75 25 60 31 78
31 95 0 11 5 20 10 20 6 0 10 14 10 30 0 17 4 30 9 30 5 0 11 18 15 40 7 46
26 90 38 90 5 0 13 -12 18 -27z"/>
<path d="M4518 5818 c-27 -6 -48 -14 -48 -19 0 -5 -5 -9 -10 -9 -14 0 -60 -46
-60 -60 0 -5 -4 -10 -8 -10 -29 0 -32 -98 -35 -935 l-2 -850 25 -50 c47 -96
94 -122 242 -135 251 -23 745 -4 808 30 66 36 140 145 140 207 0 24 -4 43 -10
43 -5 0 -10 8 -10 18 0 22 -54 84 -100 114 -53 35 -87 48 -125 48 -19 0 -37 5
-40 10 -3 6 -50 10 -105 10 -55 0 -102 -4 -105 -10 -3 -5 -42 -10 -86 -10 -46
0 -79 4 -79 10 0 6 -6 10 -14 10 -35 0 -38 45 -41 717 -2 625 -6 736 -26 749
-5 3 -9 12 -9 20 0 18 -49 74 -66 74 -7 0 -14 4 -16 10 -4 11 -97 31 -142 29
-17 -1 -52 -6 -78 -11z m187 -123 c51 -54 49 -23 52 -732 1 -364 5 -679 8
-700 10 -63 49 -123 79 -123 9 0 16 -4 16 -10 0 -6 79 -10 218 -10 119 0 234
-5 254 -10 38 -11 106 -68 127 -108 22 -41 -37 -121 -106 -143 -26 -9 -147
-14 -393 -17 -376 -4 -416 0 -452 43 -10 11 -22 25 -28 32 -5 7 -10 23 -10 37
0 14 -5 28 -10 31 -14 9 -13 1612 0 1620 6 3 10 17 10 31 0 13 5 24 10 24 6 0
10 6 10 14 0 17 37 42 71 49 48 9 122 -5 144 -28z"/>
<path d="M5813 5817 c-24 -7 -51 -19 -61 -28 -10 -8 -25 -18 -34 -21 -9 -4
-28 -33 -44 -65 l-28 -58 0 -870 0 -870 28 -55 c31 -59 42 -71 96 -98 48 -24
201 -24 250 0 41 20 100 80 100 103 0 8 5 15 10 15 6 0 10 82 10 225 0 143 4
225 10 225 6 0 10 17 10 37 0 35 26 122 40 133 4 3 9 13 13 22 6 17 37 15 37
-1 0 -4 8 -16 18 -27 9 -10 30 -37 46 -59 17 -22 32 -42 35 -45 4 -3 12 -17
20 -32 8 -16 18 -28 23 -28 4 0 8 -5 8 -10 0 -6 11 -22 25 -36 14 -14 25 -29
25 -33 0 -4 14 -22 30 -39 17 -18 30 -36 30 -42 0 -6 14 -24 30 -42 17 -17 30
-35 30 -39 0 -4 10 -18 23 -31 12 -13 28 -35 36 -50 8 -16 18 -28 23 -28 4 0
8 -5 8 -11 0 -6 6 -17 13 -24 26 -30 37 -44 37 -50 0 -12 109 -113 129 -120
12 -3 21 -11 21 -16 0 -5 11 -9 24 -9 14 0 28 -4 31 -10 9 -14 83 -12 125 3
55 21 90 40 90 49 0 4 7 8 15 8 8 0 15 4 15 8 0 5 9 19 20 32 11 13 20 29 20
37 0 7 5 13 10 13 6 0 10 32 10 75 0 43 -4 75 -10 75 -5 0 -10 7 -10 16 0 17
-79 143 -111 177 -11 12 -28 34 -37 50 -9 15 -20 27 -24 27 -4 0 -8 5 -8 10 0
6 -17 32 -37 58 -21 27 -49 63 -63 82 -14 18 -30 38 -36 44 -6 6 -28 36 -49
66 -21 30 -43 60 -49 66 -6 6 -24 28 -41 49 -16 21 -36 44 -42 51 -7 7 -13 16
-13 20 0 3 -8 14 -18 23 -75 67 -69 130 19 209 77 68 349 347 349 358 0 3 10
16 23 29 37 40 47 54 47 65 0 5 5 10 10 10 6 0 10 9 10 20 0 11 5 20 10 20 6
0 10 40 10 100 0 60 -4 100 -10 100 -5 0 -10 6 -10 13 0 8 -20 24 -45 37 -41
21 -60 24 -173 24 -118 0 -130 -2 -164 -24 -20 -14 -37 -29 -38 -34 0 -6 -83
-91 -185 -190 -334 -328 -354 -346 -370 -340 -13 5 -15 42 -15 260 0 163 -4
254 -10 254 -5 0 -10 8 -10 18 0 23 -57 92 -76 92 -8 0 -14 4 -14 9 0 10 -101
31 -144 30 -17 -1 -50 -6 -73 -12z m165 -108 c2 -5 9 -9 16 -9 7 0 18 -12 25
-27 8 -16 17 -36 22 -45 5 -10 9 -175 9 -368 0 -192 2 -350 4 -350 7 0 297
279 572 550 33 33 66 60 72 60 7 0 12 3 12 8 0 8 30 47 72 93 23 26 37 32 87
36 81 8 171 -4 171 -23 0 -8 5 -14 10 -14 6 0 10 -11 10 -25 0 -14 -4 -25 -10
-25 -5 0 -10 -17 -10 -37 0 -26 -8 -48 -25 -68 -75 -91 -116 -134 -275 -295
-176 -176 -210 -216 -210 -245 0 -8 -4 -15 -10 -15 -14 0 -13 -46 2 -89 16
-48 74 -137 121 -185 20 -21 37 -42 37 -47 0 -4 11 -19 25 -33 14 -14 25 -28
25 -32 0 -4 8 -14 18 -23 10 -9 31 -34 48 -56 16 -22 35 -46 42 -53 6 -7 12
-17 12 -22 0 -5 6 -15 13 -22 7 -7 26 -31 42 -53 38 -50 46 -60 89 -113 19
-23 38 -51 41 -62 4 -11 11 -20 16 -20 5 0 9 -7 9 -15 0 -8 4 -15 8 -15 16 0
56 -91 55 -125 -1 -41 -35 -78 -98 -106 -50 -22 -101 -18 -134 10 -11 10 -31
26 -45 36 -14 11 -26 23 -26 27 0 5 -13 22 -30 40 -16 17 -30 35 -30 40 0 8
-8 20 -37 53 -7 7 -13 17 -13 21 0 3 -8 14 -18 23 -9 9 -35 43 -57 76 -22 33
-48 67 -57 76 -10 9 -18 19 -18 23 0 4 -9 17 -21 29 -11 12 -28 36 -36 52 -9
17 -24 37 -34 46 -11 9 -19 21 -19 28 0 6 -3 11 -7 11 -5 0 -21 20 -38 45 -16
24 -33 45 -37 45 -5 0 -8 6 -8 14 0 7 -13 26 -28 43 -16 16 -37 44 -48 61 -10
18 -22 32 -26 32 -4 0 -8 5 -8 10 0 6 -11 23 -25 38 -20 21 -25 23 -25 9 0 -9
-4 -17 -10 -17 -5 0 -10 -9 -10 -20 0 -11 -4 -20 -10 -20 -5 0 -10 -11 -10
-25 0 -14 -4 -25 -10 -25 -5 0 -10 -8 -10 -17 0 -10 -11 -38 -25 -62 -14 -23
-25 -49 -25 -57 0 -8 -4 -14 -10 -14 -5 0 -10 -13 -10 -30 0 -16 -4 -30 -10
-30 -6 0 -10 -82 -10 -225 0 -262 -6 -295 -62 -333 -33 -21 -46 -24 -105 -20
-39 2 -68 9 -71 16 -2 7 -10 12 -18 12 -8 0 -18 8 -21 18 -4 9 -11 20 -17 24
-12 8 -22 1575 -11 1684 5 51 12 68 39 97 22 24 43 37 67 40 45 5 123 -3 127
-14z"/>
<path d="M1285 5813 c-105 -15 -173 -93 -183 -209 -5 -62 20 -164 40 -164 4 0
8 -5 8 -11 0 -16 26 -39 44 -39 9 0 16 -4 16 -10 0 -5 9 -10 19 -10 11 0 23
-4 26 -10 4 -6 79 -10 191 -10 183 0 185 0 209 -25 l25 -24 0 -680 c0 -442 3
-682 10 -686 6 -3 10 -22 10 -41 0 -19 4 -34 8 -34 5 0 14 -15 22 -34 8 -21
26 -42 47 -53 18 -9 33 -21 33 -25 0 -5 13 -8 29 -8 17 0 33 -4 36 -10 8 -13
97 -13 132 1 75 30 133 65 133 82 0 9 4 17 8 17 5 0 15 17 23 38 11 29 15 169
20 687 3 358 10 667 14 687 9 47 37 76 77 82 18 2 63 9 99 15 37 6 103 11 147
11 44 0 84 5 87 10 3 6 14 10 23 10 22 0 95 66 113 100 7 14 13 62 13 110 1
73 -3 91 -24 129 -14 24 -34 49 -45 55 -11 6 -22 13 -25 16 -35 35 -41 35
-705 36 -357 1 -663 0 -680 -3z m1295 -103 c0 -5 7 -10 15 -10 9 0 28 -11 43
-25 24 -23 27 -32 27 -93 0 -71 -7 -86 -52 -110 -12 -7 -33 -12 -47 -12 -14 0
-26 -4 -26 -10 0 -6 -44 -10 -112 -10 -101 -1 -139 -7 -225 -35 -13 -4 -23
-11 -23 -15 0 -5 -9 -11 -19 -15 -11 -3 -27 -25 -37 -48 -16 -38 -18 -105 -25
-722 -5 -463 -11 -681 -18 -683 -6 -2 -11 -10 -11 -18 0 -25 -47 -63 -94 -76
-35 -9 -53 -9 -85 2 -42 13 -81 50 -81 75 0 8 -4 15 -10 15 -7 0 -10 232 -10
675 0 510 -3 685 -12 715 -7 22 -16 40 -20 40 -5 0 -8 6 -8 13 -1 19 -36 57
-54 57 -9 0 -16 5 -16 10 0 6 -9 10 -19 10 -11 0 -23 5 -26 10 -9 14 -105 13
-105 -1 0 -8 -29 -10 -97 -5 -145 9 -164 14 -200 54 -29 30 -33 41 -33 88 0
30 5 54 10 54 6 0 10 5 10 11 0 15 39 49 57 49 7 0 13 5 13 10 0 7 222 10 645
10 423 0 645 -3 645 -10z"/>
</g>
</svg>
