<?xml version="1.0" encoding="iso-8859-1"?>
<!-- Generator: Adobe Illustrator 19.0.0, SVG Export Plug-In . SVG Version: 6.00 Build 0)  -->
<svg version="1.1" id="Layer_1" xmlns="http://www.w3.org/2000/svg" xmlns:xlink="http://www.w3.org/1999/xlink" x="0px" y="0px"
	 viewBox="0 0 512 512" style="enable-background:new 0 0 512 512;" xml:space="preserve">
<path style="fill:#ECF1F8;" d="M314.674,317.088c-31.865,17.381-58.672,32.002-58.672,32.002L93.096,260.237V17.151
	c0-9.471,7.677-17.148,17.148-17.148h291.517c9.471,0,17.149,7.677,17.149,17.148v243.086c0,0-24.029,13.105-53.632,29.25"/>
<path style="fill:#BAD8E8;" d="M418.91,235.801v24.436c-3.921,2.138-150.484,82.076-151.77,82.777
	c-6.946,3.789-15.335,3.786-22.282-0.003L93.095,260.237v-24.436l136.003,74.179c16.77,9.147,37.038,9.147,53.808,0L418.91,235.801z
	"/>
<path style="fill:#FFCA54;" d="M369.953,286.938c75.285-41.063,3.524-1.917,142.047-77.483V491.31
	c0,11.425-9.262,20.687-20.687,20.687H20.692c-11.425,0-20.687-9.262-20.687-20.687V209.455
	c136.117,74.253,245.088,133.684,244.853,133.557c6.946,3.788,15.336,3.792,22.282,0.002c9.206-5.021,23.33-12.725,39.328-21.45"/>
<polygon style="fill:#FFB539;" points="93.095,133.296 93.095,260.237 0.006,209.455 "/>
<polygon style="fill:#FFB850;" points="512,209.455 418.91,260.237 418.91,133.296 "/>
<polygon style="fill:#FF880B;" points="93.095,133.296 93.095,260.237 69.823,247.54 69.823,152.333 "/>
<polygon style="fill:#FF8F29;" points="442.182,152.333 442.182,247.54 418.91,260.237 418.91,133.297 "/>
<g>
	<path style="fill:#FF880B;" d="M232.73,427.634H46.551c-4.82,0-8.727-3.907-8.727-8.728c0-4.82,3.907-8.727,8.727-8.727H232.73
		c4.82,0,8.727,3.907,8.727,8.727C241.457,423.728,237.55,427.634,232.73,427.634"/>
	<path style="fill:#FF880B;" d="M174.549,462.543H46.551c-4.82,0-8.727-3.907-8.727-8.728c0-4.82,3.907-8.727,8.727-8.727h127.998
		c4.82,0,8.727,3.907,8.727,8.727C183.276,458.636,179.369,462.543,174.549,462.543"/>
</g>
<path style="fill:#FFB852;" d="M58.507,511.996H20.689C9.263,511.996,0,502.734,0,491.306V209.453l37.818,20.632v261.221
	C37.818,502.734,47.08,511.996,58.507,511.996z"/>
<path style="fill:#FC3842;" d="M139.876,113.65c0,64.662,56.322,114.306,90.475,138.465c15.303,10.825,35.739,10.829,51.042,0.004
	c33.315-23.565,87.732-71.383,90.38-133.739c1.521-35.798-26.163-66.726-61.992-66.597c-23.196,0.084-43.393,12.945-53.907,31.907
	c-10.548-19.023-30.839-31.907-54.133-31.907C167.576,51.784,139.876,79.484,139.876,113.65"/>
<path style="fill:#EF2235;" d="M246.618,245.818c1.513,4.794,3.165,9.541,4.969,14.207c-7.482-0.722-14.801-3.351-21.236-7.902
	c-34.152-24.168-90.472-73.808-90.472-138.471c0-38.653,35.271-68.44,74.309-60.624C150.297,66.049,136.46,162.363,246.618,245.818z
	"/>
<path style="fill:#FF323F;" d="M268.308,258.453c-0.826,0.245-1.652,0.454-2.49,0.641c0.826-0.197,1.641-0.407,2.443-0.652
	C268.274,258.442,268.297,258.453,268.308,258.453z"/>
<path style="fill:#ECF1F8;" d="M293.385,328.702c1.768-0.966,3.583-1.955,5.422-2.955
	C296.968,326.759,295.153,327.737,293.385,328.702z"/>
<path style="fill:#FFCA54;" d="M298.807,325.747c-1.839,1.012-3.654,1.99-5.422,2.955
	C295.153,327.737,296.968,326.747,298.807,325.747z"/>
<path style="fill:#FFCF6E;" d="M511.994,209.453V417.23c-83.644,9.725-165.869-23.055-219.739-87.912
	c0,0,102.603-55.962,105.099-57.332C397.386,271.979,511.966,209.469,511.994,209.453z"/>
<path style="fill:#F5F6F7;" d="M418.904,17.154v243.081c-0.034,0.018-126.611,69.059-126.66,69.084
	c-16.818-20.215-30.799-43.666-40.657-69.293c10.31,1,20.899-1.641,29.778-7.913c34.152-24.157,90.472-73.796,90.472-138.459
	c0-34.164-27.707-61.869-61.87-61.869c-23.296,0-43.589,12.881-54.132,31.906c-0.919-1.664-1.92-3.293-3.002-4.852v-0.011
	c11.822-29.498,29.149-56.203,50.723-78.824h98.209C411.236,0.002,418.904,7.682,418.904,17.154z"/>
<path style="fill:#FFCA54;" d="M293.385,328.702c1.768-0.966,3.583-1.955,5.422-2.955
	C296.968,326.759,295.153,327.737,293.385,328.702z"/>
<path style="fill:#FF3B4E;" d="M268.261,258.442c-4.907,1.497-11.004,2.165-16.675,1.583c-1.804-4.667-3.455-9.414-4.969-14.207
	C255.201,252.352,260.151,256.061,268.261,258.442z"/>
<path style="fill:#FC5162;" d="M371.836,113.653c0,64.663-56.32,114.303-90.472,138.459c-4.073,2.874-8.495,4.992-13.103,6.33
	c-8.382-2.461-13.539-6.455-21.643-12.625c-16.798-53.068-15.595-112.592,6.214-166.981c1.082,1.56,2.083,3.188,3.002,4.852
	c10.543-19.025,30.836-31.906,54.132-31.906C344.13,51.784,371.836,79.489,371.836,113.653z"/>
<path style="fill:#FFCA54;" d="M389.663,276.188c2.164-1.187,4.247-2.316,6.225-3.399
	C393.91,273.872,391.827,275.012,389.663,276.188z"/>
<path style="fill:#CCDDE5;" d="M418.904,235.799v24.436c-0.017,0.01-126.63,69.069-126.66,69.084
	c-4.666-5.608-9.077-11.427-13.219-17.431C281.696,310.73,271.382,316.262,418.904,235.799z"/>
<g>
</g>
<g>
</g>
<g>
</g>
<g>
</g>
<g>
</g>
<g>
</g>
<g>
</g>
<g>
</g>
<g>
</g>
<g>
</g>
<g>
</g>
<g>
</g>
<g>
</g>
<g>
</g>
<g>
</g>
</svg>
