<svg height="512" viewBox="0 0 60 60" width="512" xmlns="http://www.w3.org/2000/svg"><path fill="#fff" id="Shape" d="m.24 47.06c-.1335524.5145622-.05674922 1.0611234.2134441 1.518951.27019333.4578276.71154257.7892469 1.2265559.921049 6.3 1.62 6 1.55 6.31 1.55.91330247.0016017 1.71167544-.615697 1.94-1.5l.77-3c.3341941-.1491885.6496924-.3371449.94-.56l.13 6.11c.0400028 1.4839279.8985109 2.8236625 2.23 3.48v2.42c0 1.1045695.8954305 2 2 2h28c1.1045695 0 2-.8954305 2-2v-2.42c1.3346123-.6579974 2.1936696-2.0024413 2.23-3.49l.13-6.09c.2903076.2228551.6058059.4108115.94.56l.77 3c.1318021.5150133.4632214.9563626.921049 1.2265559s1.0043888.3469965 1.518951.2134441l5.81-1.49c.5150133-.1318021.9563626-.4632214 1.2265559-.921049s.3469965-1.0043888.2134441-1.518951l-.77-3c.9445187-1.254891 1.2444912-2.8806675.81-4.39-.32-1.1-4.59-15.93-4.45-15.48-.14-.45.38 1.31-2.21-7.65-.8128199-2.7657832-3.2380748-4.7504435-6.11-5-1.72-1.86-3.47-2.17-5.32-2.71-2.16-7.57-1.71-5.84-1.71-6.15-.6-2.48-7.74-2.69-10-2.69s-9.39.21-9.95 2.69c-.08.25.29-1-1.75 6.14-2.1.61-3.66.9-5.33 2.71-2.8719252.2495565-5.2971801 2.2342168-6.11 5-4 13.74-5 17.19-4.92 17.06 0 0 .19-.63-1.74 6.07-.43731483 1.5077784-.14107249 3.1334083.8 4.39zm6.06-21.33 4.93 1.48.09 3.92-6-1.86zm5.06 7.51.05 2.23-7.27-2.24.58-2zm-3.36 15.81-5.82-1.49.53-2.07c.72.37.71.34 4.7 1.35.36328554.0925132.73537593.1461478 1.11.16zm3.56-6.3c-.1998819.7706733-.6979148 1.4302845-1.3844038 1.8335498-.68648896.4032654-1.50512428.5171069-2.2755962.3164502-3.64-.9-4.27-.9-5.07-1.77-.73503871-.7718973-1.00531522-1.8758436-.71-2.9l1.46-5.08 7.88 2.42c.12 5.76.12 5.08.09 5.18zm1.73-12.75h15.71v24h-13.23c-1.1045695 0-2-.8954305-2-2zm2.71 26h13v2h-13zm28 2h-13v-2h13zm.23-4h-13.23v-24h15.71l-.48 22c0 .530433-.2107137 1.0391408-.5857864 1.4142136-.3750728.3750727-.8837806.5857864-1.4142136.5857864zm10.49-24.73-6 1.86.09-3.92 4.93-1.48zm1.14 4-7.27 2.24v-2.23l6.64-2zm-7.43 9.49.12-5.15 7.87-2.42 1.46 5.08c.2953152 1.0241564.0250387 2.1281027-.71 2.9-.8.82-1.32.82-5.06 1.77-.7829508.2046506-1.615373.0843075-2.3083047-.3337111s-1.1875933-1.0982532-1.3716953-1.8862889zm3.57 6.29-.52-2.05c.3775637-.0105457.7529672-.060823 1.12-.15 4-1 4-1 4.69-1.35l.53 2.07zm-.78-31.95 1.93 6.71-4.33 1.3c.18-9.11.37-9.42-.27-11.11 1.2970009.5978264 2.2710234 1.7287139 2.67 3.1zm-5.43-4c.8072157.9814794 1.2364395 2.2194883 1.21 3.49l-.25 11.41h-15.75v-4c.8081429.1052864 1.5993433-.2903139 2-1 .3572656-.6188022.3572656-1.3811978 0-2l-1.33-2.21c4.4943263-.7000721 8.3131342-3.6614425 10.11-7.84 1.53.43 2.79.69 4.01 2.17zm-6.73-6.25.94 3.15c-1.5468844 3.6897569-4.9192074 6.2949523-8.88 6.86.3269722-2.1029409 1.5928789-3.9429215 3.44-5 1.9796801-1.1673021 3.5511155-2.91683355 4.5-5.01zm-5.57 3.29c-1.4834006.8687527-2.6927285 2.1369876-3.49 3.66-.7896084-1.5284899-2.0007638-2.7986415-3.49-3.66-1.0097864-.59544587-1.9013137-1.37171871-2.63-2.29 4.0010992-1.13475135 8.2389008-1.13475135 12.24 0-.7286863.91828129-1.6202136 1.69455413-2.63 2.29zm-12.55-3.29c.9654515 2.09554082 2.5545276 3.8417782 4.55 5 1.8432973 1.0593177 3.105278 2.8989397 3.43 5-6.4-1.19-8.45-5.72-8.87-6.85zm9.06 13.09 1.23 2.06h-2.46zm8-16.74c-.0912748 1.0066972-.3622243 1.98888923-.8 2.9-4.6824646-1.48025557-9.7075354-1.48025557-14.39 0-.4412348-.91045559-.7155791-1.89267569-.81-2.9.61-.44 3.4-1.2 8-1.2s7.38.76 8 1.2zm-21 8.09 1.28-.37c1.7999668 4.1761565 5.6172272 7.1363267 10.11 7.84l-1.34 2.24c-.3562079.6169405-.3573625 1.3767843-.0030309 1.9948044.3543315.6180201 1.0106537 1.0009106 1.7230309 1.0051956h.23v4h-15.75l-.25-11.42c-.0095505-2.4627317 1.6278415-4.6281825 4-5.29zm-8.22 5.81c.39897659-1.3712861 1.3729991-2.5021736 2.67-3.1-.6 1.62-.47 1.73-.27 11.13l-4.33-1.3z"/></svg>