<?xml version="1.0" encoding="iso-8859-1"?>
<!-- Generator: Adobe Illustrator 18.0.0, SVG Export Plug-In . SVG Version: 6.00 Build 0)  -->
<!DOCTYPE svg PUBLIC "-//W3C//DTD SVG 1.1//EN" "http://www.w3.org/Graphics/SVG/1.1/DTD/svg11.dtd">
<svg version="1.1" id="Capa_1" xmlns="http://www.w3.org/2000/svg" xmlns:xlink="http://www.w3.org/1999/xlink" x="0px" y="0px"
	 viewBox="0 0 298.676 298.676" style="enable-background:new 0 0 298.676 298.676;" xml:space="preserve">
<path fill="#fff" d="M293.635,180.722c-2.784,0-5.041,2.258-5.041,5.042v12.912L219.671,63.633c-0.861-1.687-2.596-2.75-4.49-2.75H83.499
	c-1.894,0-3.629,1.063-4.49,2.749L10.082,198.676v-12.912c0-2.784-2.257-5.042-5.041-5.042c-2.784,0-5.041,2.258-5.041,5.042v46.989
	c0,2.784,2.257,5.042,5.041,5.042c2.784,0,5.041-2.257,5.041-5.042v-8.067h121.603v8.067c0,2.784,2.257,5.042,5.041,5.042
	s5.042-2.257,5.042-5.042v-8.067h73.408c0.002,0,0.003,0,0.005,0c0.001,0,0.002,0,0.004,0h73.409v8.067
	c0,2.784,2.257,5.042,5.041,5.042c2.784,0,5.041-2.257,5.041-5.042v-46.989C298.676,182.979,296.419,180.722,293.635,180.722z
	 M136.726,180.722c-2.784,0-5.041,2.258-5.041,5.042v28.839H13.275L86.585,70.966h120.362l-65.179,127.71v-12.912
	C141.768,182.979,139.511,180.722,136.726,180.722z M210.14,214.602h-65.18l65.18-127.71V214.602z M220.223,214.602V86.892
	l65.179,127.71H220.223z"/>
<g>
</g>
<g>
</g>
<g>
</g>
<g>
</g>
<g>
</g>
<g>
</g>
<g>
</g>
<g>
</g>
<g>
</g>
<g>
</g>
<g>
</g>
<g>
</g>
<g>
</g>
<g>
</g>
<g>
</g>
</svg>
