<?xml version="1.0" encoding="iso-8859-1"?>
<!-- Generator: Adobe Illustrator 19.0.0, SVG Export Plug-In . SVG Version: 6.00 Build 0)  -->
<svg version="1.1" id="Capa_1" xmlns="http://www.w3.org/2000/svg" xmlns:xlink="http://www.w3.org/1999/xlink" x="0px" y="0px"
	 viewBox="0 0 512.003 512.003" style="enable-background:new 0 0 512.003 512.003;" xml:space="preserve">
<polyline style="fill:#6D6FAB;" points="448.002,170.348 448.002,46.348 390.043,46.348 390.043,120.002 "/>
<rect x="76.001" y="217.511" style="fill:#F1F2F2;" width="360" height="284.49"/>
<polygon style="fill:#E24050;" points="289.002,217.515 502.002,217.515 256.001,10.002 10.002,217.515 220.516,217.515 "/>
<g>
	<rect x="160.001" y="256.001" style="fill:#6D6FAB;" width="72" height="72"/>
	<rect x="280.001" y="256.001" style="fill:#6D6FAB;" width="72" height="72"/>
	<rect x="160.001" y="376.001" style="fill:#6D6FAB;" width="72" height="72"/>
	<rect x="280.001" y="376.001" style="fill:#6D6FAB;" width="72" height="72"/>
</g>
<path d="M256.128,207.515h-0.126c-5.523,0-10,4.477-10,10s4.477,10,10,10h0.126c5.523,0,10-4.477,10-10
	S261.651,207.515,256.128,207.515z"/>
<path d="M232.002,246.002h-72c-5.523,0-10,4.477-10,10v72c0,5.523,4.477,10,10,10h72c5.523,0,10-4.477,10-10v-72
	C242.002,250.479,237.525,246.002,232.002,246.002z M222.002,318.002h-52v-52h52V318.002z"/>
<path d="M352.002,246.002h-72c-5.523,0-10,4.477-10,10v72c0,5.523,4.477,10,10,10h72c5.523,0,10-4.477,10-10v-72
	C362.002,250.479,357.525,246.002,352.002,246.002z M342.002,318.002h-52v-52h52V318.002z"/>
<path d="M232.002,366.002h-72c-5.523,0-10,4.477-10,10v72c0,5.523,4.477,10,10,10h72c5.523,0,10-4.477,10-10v-72
	C242.002,370.479,237.525,366.002,232.002,366.002z M222.002,438.002h-52v-52h52V438.002z"/>
<path d="M352.002,366.002h-72c-5.523,0-10,4.477-10,10v72c0,5.523,4.477,10,10,10h72c5.523,0,10-4.477,10-10v-72
	C362.002,370.479,357.525,366.002,352.002,366.002z M342.002,438.002h-52v-52h52V438.002z"/>
<path d="M502.002,492.001h-0.137c-5.523,0-10,4.477-10,10s4.477,10,10,10h0.137c5.523,0,10-4.477,10-10
	S507.525,492.001,502.002,492.001z"/>
<path d="M472.016,492.002h-26.014V227.515h56c4.199,0,7.951-2.624,9.393-6.567c1.441-3.944,0.265-8.369-2.945-11.076l-50.448-42.555
	V46.348c0-5.523-4.477-10-10-10h-57.958c-5.523,0-10,4.477-10,10v55.207L262.449,2.358c-3.725-3.142-9.171-3.142-12.896,0
	l-246,207.514c-3.21,2.708-4.386,7.132-2.945,11.076s5.193,6.567,9.393,6.567h56v264.486h-56c-5.523,0-10,4.477-10,10
	s4.477,10,10,10h462.014c5.523,0,10-4.477,10-10S477.539,492.002,472.016,492.002z M400.043,56.348h37.958v94.098l-37.958-32.02
	V56.348z M86.002,492.002V227.515h134.514c5.523,0,10-4.477,10-10s-4.477-10-10-10H37.365L256.002,23.084l218.636,184.431H289.002
	c-5.523,0-10,4.477-10,10s4.477,10,10,10h137v264.486h-340V492.002z"/>
<g>
</g>
<g>
</g>
<g>
</g>
<g>
</g>
<g>
</g>
<g>
</g>
<g>
</g>
<g>
</g>
<g>
</g>
<g>
</g>
<g>
</g>
<g>
</g>
<g>
</g>
<g>
</g>
<g>
</g>
</svg>
