<?xml version="1.0" encoding="iso-8859-1"?>
<!-- Generator: Adobe Illustrator 19.0.0, SVG Export Plug-In . SVG Version: 6.00 Build 0)  -->
<svg version="1.1" id="Layer_1" xmlns="http://www.w3.org/2000/svg" xmlns:xlink="http://www.w3.org/1999/xlink" x="0px" y="0px"
	 viewBox="0 0 512 512" style="enable-background:new 0 0 512 512;" xml:space="preserve">
<path style="fill:#F8981D;" d="M451.993,318.282c-25.393,0-46.053,20.66-46.053,46.053s20.66,46.053,46.053,46.053
	c25.393,0,46.053-20.66,46.053-46.053S477.387,318.282,451.993,318.282z"/>
<g style="opacity:0.19;">
	<path style="fill:#202121;" d="M423.696,364.335c0-22.356,16.016-41.036,37.176-45.186c-2.875-0.564-5.842-0.868-8.878-0.868
		c-25.393,0-46.053,20.66-46.053,46.053c0,25.393,20.66,46.053,46.053,46.053c3.036,0,6.004-0.304,8.878-0.868
		C439.712,405.372,423.696,386.692,423.696,364.335z"/>
</g>
<path style="fill:#485D6D;" d="M213.982,342.339l-44.615-44.616c-1.428-1.427-3.347-2.246-5.265-2.246
	c-1.187,0-2.905,0.303-4.348,1.747L16.179,440.799c-2.78,2.787-2.777,7.32,0.008,10.105l44.615,44.614
	c1.35,1.35,3.146,2.093,5.059,2.093c1.912,0,3.707-0.743,5.056-2.092l143.565-143.566c1.175-1.173,1.795-2.786,1.745-4.54
	C216.175,345.535,215.377,343.732,213.982,342.339z M75.293,468.363c-1.115,1.115-2.598,1.729-4.175,1.729s-3.059-0.614-4.174-1.728
	l-23.602-23.601c-1.115-1.115-1.729-2.597-1.729-4.175c0-1.577,0.614-3.059,1.728-4.174c1.115-1.115,2.598-1.729,4.175-1.729
	c1.578,0,3.06,0.614,4.174,1.728l23.602,23.601c1.115,1.115,1.729,2.597,1.729,4.175C77.022,465.765,76.407,467.247,75.293,468.363z
	"/>
<g style="opacity:0.19;">
	<path style="fill:#202121;" d="M36.038,450.981c-2.784-2.785-2.787-7.318-0.008-10.105l138.245-138.245l-4.909-4.908
		c-1.427-1.427-3.347-2.246-5.265-2.246c-1.187,0-2.905,0.303-4.348,1.747L16.179,440.799c-2.78,2.787-2.777,7.32,0.008,10.105
		l44.615,44.614c1.35,1.35,3.146,2.093,5.059,2.093c1.912,0,3.707-0.743,5.056-2.092l4.831-4.831L36.038,450.981z"/>
</g>
<g>
	<path style="fill:#485D6D;" d="M132.124,305.12l17.763-17.763c3.762-3.761,8.81-5.833,14.215-5.833
		c5.674,0,11.048,2.25,15.132,6.331l44.616,44.616c3.926,3.927,6.173,9.096,6.325,14.554c0.156,5.627-1.912,10.881-5.825,14.794
		l-17.747,17.747c41.734,22.931,90.135,28.916,135.439,17.695L114.316,169.538C103.15,214.303,108.724,262.644,132.124,305.12z"/>
	<path style="fill:#485D6D;" d="M296.961,404.906c-31.86,0-63.464-8.112-91.392-23.457l-2.506-1.377l19.769-19.769
		c3.49-3.491,5.336-8.186,5.197-13.217c-0.137-4.906-2.161-9.558-5.697-13.095l-44.616-44.616
		c-3.679-3.678-8.513-5.704-13.614-5.704c-4.831,0-9.34,1.848-12.697,5.204l-19.783,19.783l-1.378-2.502
		c-23.178-42.073-29.575-90.775-18.01-137.138l0.918-3.68l233.095,233.095l-3.69,0.914
		C327.66,403.036,312.319,404.906,296.961,404.906z M210.159,379.047c26.671,14.117,56.619,21.567,86.803,21.567
		c13.735,0,27.455-1.531,40.84-4.553l-222.29-222.291c-9.852,43.264-3.811,88.385,17.129,127.796l15.727-15.727
		c4.168-4.168,9.755-6.462,15.733-6.462c6.247,0,12.16,2.472,16.649,6.96l44.616,44.616c4.316,4.317,6.785,10.003,6.952,16.012
		c0.173,6.223-2.119,12.037-6.453,16.372L210.159,379.047z"/>
</g>
<path style="fill:#F04C35;" d="M448.137,63.571C413.562,28.995,367.124,9.955,317.374,9.955c-56.502,0-111.293,23.674-154.279,66.66
	c-20.556,20.556-35.87,44.704-45.517,71.775l-0.462,1.293l244.79,244.791l1.292-0.457c10.44-3.698,20.604-8.317,30.255-13.753
	l5.472-3.249l-0.303-1.509c-0.76-3.791-1.146-7.671-1.146-11.534c0-32.29,26.269-58.559,58.559-58.559
	c3.779,0,7.595,0.375,11.34,1.111l1.464,0.289l0.794-1.262C520.593,224.632,511.955,127.387,448.137,63.571z"/>
<g>
	<path style="fill:#202121;" d="M71.119,472.239c2.06,0,4.12-0.786,5.693-2.358c3.144-3.144,3.144-8.241-0.001-11.383
		l-23.602-23.601c-3.143-3.143-8.24-3.144-11.383,0.001c-3.144,3.144-3.144,8.241,0.001,11.384l23.602,23.601
		C66.999,471.453,69.06,472.239,71.119,472.239z"/>
	<path style="fill:#202121;" d="M479.205,310.88c33.968-55.858,42.005-120.503,21.956-178.357c-1.456-4.2-6.043-6.424-10.243-4.97
		c-4.201,1.455-6.426,6.042-4.97,10.243c18.819,54.298,10.65,115.259-22.343,167.671c-3.759-0.74-7.639-1.138-11.611-1.138
		c-33.088,0-60.007,26.919-60.007,60.006c0,4.045,0.408,7.996,1.175,11.819l-4.096,2.432c-9.534,5.37-19.414,9.833-29.519,13.411
		L119.593,152.046c9.154-25.686,24.051-49.703,44.47-70.121C245.79,0.194,368.171-5.466,442.673,69.035
		c12.673,12.671,23.333,26.942,31.686,42.415c2.112,3.911,6.995,5.372,10.908,3.259c3.912-2.112,5.371-6.996,3.259-10.908
		c-9.096-16.846-20.692-32.373-34.468-46.15C415.1,18.694,362.884-1.625,307.001,0.423c-56.373,2.071-111.179,26.972-154.322,70.116
		c-22.636,22.637-39.555,50.336-49.5,80.458c-0.27,0.594-0.472,1.21-0.59,1.84c-4.123,12.897-6.981,26.222-8.454,39.778
		c-4.687,43.134,4.592,87.022,26.172,124.322L6.318,430.924c-0.003,0.003-0.005,0.006-0.009,0.01l-0.489,0.489
		c-7.951,7.953-7.728,21.117,0.499,29.346l44.615,44.615c4.085,4.084,9.459,6.332,15.134,6.332c0.001,0,0.002,0,0.002,0
		c5.405,0,10.452-2.071,14.213-5.832l114.483-114.482c31.545,18.286,66.816,27.466,102.151,27.464
		c34.47-0.002,68.998-8.743,100.133-26.299c0.053-0.029,0.105-0.06,0.157-0.091l1.386-0.823c9.958,19.386,30.148,32.689,53.4,32.689
		c33.088,0,60.006-26.919,60.006-60.006C512,341.041,498.649,320.819,479.205,310.88z M17.704,449.386
		c-1.949-1.95-1.95-5.122-0.004-7.072l111.468-111.468l6.967-6.967l0,0l25.137-25.137c0.923-0.924,2.048-1.118,2.83-1.118
		c1.355,0,2.72,0.59,3.747,1.617l44.615,44.616c1.006,1.005,1.58,2.289,1.616,3.616c0.023,0.82-0.152,1.999-1.116,2.962
		l-25.136,25.135l-0.001,0.001L71.713,491.688l-2.314,2.314c-1.951,1.951-5.127,1.95-7.08-0.001L17.704,449.386z M206.602,379.568
		l17.747-17.747c3.912-3.913,5.98-9.167,5.825-14.794c-0.152-5.458-2.398-10.626-6.325-14.554l-44.616-44.616
		c-4.084-4.083-9.458-6.331-15.131-6.331c-5.405,0-10.453,2.073-14.215,5.833l-17.763,17.763
		c-23.4-42.475-28.974-90.817-17.808-135.582l227.725,227.725C296.737,408.483,248.336,402.499,206.602,379.568z M451.993,408.243
		c-24.211,0-43.907-19.697-43.907-43.907c0-24.21,19.697-43.907,43.907-43.907s43.907,19.697,43.907,43.907
		C495.9,388.546,476.204,408.243,451.993,408.243z"/>
</g>
<g style="opacity:0.19;">
	<path style="fill:#202121;" d="M314.987,14.54c0,0-255.256,53.087-170.352,275.033l0.167,5.903l-17.822,16.902
		c0,0-92.909-169.687,89.25-279.105C216.229,33.274,257.426,11.877,314.987,14.54z"/>
</g>
<g style="opacity:0.19;">
	<path style="fill:#202121;" d="M218.799,364.335l-25.279,16.928c97.071,69.381,196.64-0.83,196.64-0.83
		C307.14,425.372,218.799,364.335,218.799,364.335z"/>
</g>
<g>
</g>
<g>
</g>
<g>
</g>
<g>
</g>
<g>
</g>
<g>
</g>
<g>
</g>
<g>
</g>
<g>
</g>
<g>
</g>
<g>
</g>
<g>
</g>
<g>
</g>
<g>
</g>
<g>
</g>
</svg>
