<svg height="457pt" viewBox="0 0 457 457.27679" width="457pt" xmlns="http://www.w3.org/2000/svg"><path d="m448.136719 228.570312c0 121.3125-98.25 219.5625-219.425781 219.5625-121.179688 0-219.429688-98.25-219.429688-219.5625 0-121.175781 98.25-219.429687 219.429688-219.429687 121.175781 0 219.425781 98.253906 219.425781 219.429687zm0 0" fill="#eb675e"/><path d="m228.710938 457.277344c-126.035157 0-228.574219-102.597656-228.574219-228.707032 0-126.035156 102.539062-228.570312 228.574219-228.570312 126.035156 0 228.570312 102.535156 228.570312 228.570312 0 126.109376-102.535156 228.707032-228.570312 228.707032zm0-438.992188c-115.953126 0-210.285157 94.335938-210.285157 210.285156 0 116.027344 94.332031 210.421876 210.285157 210.421876 115.949218 0 210.285156-94.394532 210.285156-210.421876 0-115.949218-94.335938-210.285156-210.285156-210.285156zm0 0" fill="#2a3d4f"/><path d="m317.035156 243.117188-139.480468 69.738281c-10.765626 5.382812-23.425782-2.445313-23.425782-14.476563v-139.480468c0-12.035157 12.660156-19.859376 23.425782-14.480469l139.480468 69.742187c11.929688 5.964844 11.929688 22.992188 0 28.957032zm0 0" fill="#e7e4f3"/><path d="m170.300781 323.730469c-4.613281 0-9.207031-1.273438-13.304687-3.804688-7.519532-4.648437-12.007813-12.707031-12.007813-21.546875v-139.480468c0-8.839844 4.488281-16.898438 12.007813-21.546876 7.523437-4.652343 16.730468-5.0625 24.648437-1.109374l139.480469 69.738281c8.632812 4.320312 14 13 14 22.65625s-5.367188 18.339843-14 22.65625l-139.480469 69.742187c-3.609375 1.800782-7.484375 2.695313-11.34375 2.695313zm.035157-171.894531c-1.730469 0-3.078126.667968-3.722657 1.070312-1.007812.621094-3.339843 2.445312-3.339843 5.992188v139.480468c0 3.546875 2.332031 5.371094 3.339843 5.992188 1.007813.621094 3.695313 1.890625 6.851563.308594l139.480468-69.742188c3.515626-1.753906 3.894532-4.992188 3.894532-6.300781 0-1.304688-.378906-4.542969-3.894532-6.296875l-139.480468-69.742188c-1.121094-.5625-2.183594-.761718-3.128906-.761718zm0 0" fill="#2a3d4f"/></svg>