<?xml version="1.0" encoding="iso-8859-1"?>
<!-- Generator: Adobe Illustrator 19.0.0, SVG Export Plug-In . SVG Version: 6.00 Build 0)  -->
<svg version="1.1" id="Capa_1" xmlns="http://www.w3.org/2000/svg" xmlns:xlink="http://www.w3.org/1999/xlink" x="0px" y="0px"
	 viewBox="0 0 512 512" style="enable-background:new 0 0 512 512;" xml:space="preserve">
<rect x="110.933" y="76.8" style="fill:#8697CB;" width="290.133" height="358.4"/>
<g>
	<path style="fill:#F29C1F;" d="M443.682,324.454c-0.794,0-1.596-0.111-2.398-0.341c-4.523-1.323-7.117-6.059-5.803-10.581
		c5.436-18.611,8.183-37.965,8.183-57.532c0-19.499-2.739-38.801-8.132-57.353c-1.314-4.523,1.28-9.259,5.811-10.573
		c4.531-1.34,9.259,1.28,10.573,5.811c5.854,20.096,8.815,41.003,8.815,62.114c0,21.188-2.987,42.155-8.875,62.319
		C450.782,322.039,447.377,324.454,443.682,324.454z"/>
	<path style="fill:#F29C1F;" d="M68.318,324.454c-3.695,0-7.1-2.415-8.183-6.144c-5.888-20.156-8.875-41.122-8.875-62.319
		c0-21.12,2.97-42.018,8.815-62.114c1.314-4.531,6.05-7.134,10.581-5.811c4.523,1.314,7.125,6.05,5.811,10.573
		c-5.402,18.56-8.141,37.862-8.141,57.361c0,19.575,2.756,38.929,8.192,57.532c1.323,4.523-1.271,9.259-5.803,10.581
		C69.914,324.352,69.111,324.454,68.318,324.454z"/>
	<path style="fill:#F29C1F;" d="M25.6,358.4c-3.26,0-6.374-1.886-7.799-5.052C6.323,327.646,0,293.086,0,256
		s6.323-71.646,17.809-97.348c1.929-4.292,6.98-6.229,11.273-4.309c4.301,1.929,6.229,6.972,4.309,11.273
		C22.861,189.167,17.067,221.269,17.067,256s5.794,66.833,16.324,90.385c1.92,4.301-0.009,9.353-4.309,11.273
		C27.947,358.17,26.769,358.4,25.6,358.4z"/>
	<path style="fill:#F29C1F;" d="M486.4,358.4c-1.161,0-2.347-0.23-3.482-0.742c-4.301-1.929-6.229-6.963-4.309-11.273
		c10.53-23.561,16.324-55.663,16.324-90.385s-5.794-66.825-16.324-90.385c-1.92-4.309,0.009-9.353,4.309-11.273
		c4.318-1.937,9.353,0.017,11.273,4.309C505.677,184.354,512,218.923,512,256c0,37.077-6.323,71.646-17.809,97.348
		C492.774,356.514,489.66,358.4,486.4,358.4z"/>
</g>
<path style="fill:#ECF0F1;" d="M221.867,312.815v11.452c0,18.85,15.283,34.133,34.133,34.133c18.85,0,34.133-15.283,34.133-34.133
	v-10.01C265.6,316.928,241.997,315.605,221.867,312.815z"/>
<path style="fill:#F0C419;" d="M349.867,307.2c-25.6,0-25.6-51.2-25.6-51.2v-59.733c0-51.2-68.267-51.2-68.267-51.2
	s-68.267,0-68.267,51.2V256c0,0,0,51.2-25.6,51.2C162.133,307.2,263.467,345.6,349.867,307.2z"/>
<path style="fill:#FFC500;" d="M221.867,264.533c-4.71,0-8.533-3.814-8.533-8.533v-59.733c0-24.9,42.462-25.6,42.889-25.6
	c4.71,0,8.533,3.814,8.533,8.533s-3.823,8.533-8.533,8.533c-11.264,0.35-25.822,4.446-25.822,8.533V256
	C230.4,260.719,226.577,264.533,221.867,264.533z"/>
<path style="fill:#687492;" d="M373.197,503.467H138.803c-15.394,0-27.87-12.476-27.87-27.87V435.2h290.133v40.397
	C401.067,490.991,388.591,503.467,373.197,503.467z"/>
<g>
	<path style="fill:#6C83B3;" d="M281.6,477.867h-51.2c-4.71,0-8.533-3.814-8.533-8.533c0-4.719,3.823-8.533,8.533-8.533h51.2
		c4.71,0,8.533,3.814,8.533,8.533C290.133,474.052,286.31,477.867,281.6,477.867z"/>
	<path style="fill:#6C83B3;" d="M358.4,477.867h-34.133c-4.71,0-8.533-3.814-8.533-8.533c0-4.719,3.823-8.533,8.533-8.533H358.4
		c4.71,0,8.533,3.814,8.533,8.533C366.933,474.052,363.11,477.867,358.4,477.867z"/>
	<path style="fill:#6C83B3;" d="M187.733,477.867H153.6c-4.71,0-8.533-3.814-8.533-8.533c0-4.719,3.823-8.533,8.533-8.533h34.133
		c4.71,0,8.533,3.814,8.533,8.533C196.267,474.052,192.444,477.867,187.733,477.867z"/>
</g>
<path style="fill:#687492;" d="M138.803,8.533h234.402c15.386,0,27.861,12.476,27.861,27.87V76.8H110.933V36.403
	C110.933,21.009,123.409,8.533,138.803,8.533z"/>
<path style="fill:#6C83B3;" d="M298.667,51.2h-85.333c-4.71,0-8.533-3.814-8.533-8.533s3.823-8.533,8.533-8.533h85.333
	c4.71,0,8.533,3.814,8.533,8.533S303.377,51.2,298.667,51.2z"/>
<g>
	<path style="fill:#611C90;" d="M373.197,512H138.803c-20.07,0-36.403-16.324-36.403-36.403V435.2c0-4.719,3.823-8.533,8.533-8.533
		h290.133c4.719,0,8.533,3.814,8.533,8.533v40.397C409.6,495.676,393.276,512,373.197,512z M119.467,443.733v31.863
		c0,10.658,8.678,19.337,19.337,19.337h234.394c10.658,0,19.337-8.678,19.337-19.337v-31.863H119.467z"/>
	<path style="fill:#611C90;" d="M281.6,477.867h-51.2c-4.71,0-8.533-3.814-8.533-8.533c0-4.719,3.823-8.533,8.533-8.533h51.2
		c4.719,0,8.533,3.814,8.533,8.533C290.133,474.052,286.319,477.867,281.6,477.867z"/>
	<path style="fill:#611C90;" d="M358.4,477.867h-34.133c-4.719,0-8.533-3.814-8.533-8.533c0-4.719,3.814-8.533,8.533-8.533H358.4
		c4.719,0,8.533,3.814,8.533,8.533C366.933,474.052,363.119,477.867,358.4,477.867z"/>
	<path style="fill:#611C90;" d="M187.733,477.867H153.6c-4.71,0-8.533-3.814-8.533-8.533c0-4.719,3.823-8.533,8.533-8.533h34.133
		c4.71,0,8.533,3.814,8.533,8.533C196.267,474.052,192.444,477.867,187.733,477.867z"/>
	<path style="fill:#611C90;" d="M401.067,85.333H110.933c-4.71,0-8.533-3.823-8.533-8.533V36.403C102.4,16.333,118.733,0,138.803,0
		h234.402c20.07,0,36.395,16.333,36.395,36.403V76.8C409.6,81.51,405.786,85.333,401.067,85.333z M119.467,68.267h273.067V36.403
		c0-10.658-8.67-19.337-19.328-19.337H138.803c-10.658,0-19.337,8.678-19.337,19.337V68.267z"/>
	<path style="fill:#611C90;" d="M298.667,51.2h-85.333c-4.71,0-8.533-3.823-8.533-8.533s3.823-8.533,8.533-8.533h85.333
		c4.719,0,8.533,3.823,8.533,8.533S303.386,51.2,298.667,51.2z"/>
	<path style="fill:#611C90;" d="M401.067,443.733H110.933c-4.71,0-8.533-3.814-8.533-8.533V76.8c0-4.71,3.823-8.533,8.533-8.533
		h290.133c4.719,0,8.533,3.823,8.533,8.533v358.4C409.6,439.919,405.786,443.733,401.067,443.733z M119.467,426.667h273.067V85.333
		H119.467V426.667z"/>
	<path style="fill:#611C90;" d="M443.674,324.454c-0.794,0-1.596-0.111-2.389-0.341c-4.523-1.314-7.117-6.059-5.803-10.581
		c5.436-18.628,8.192-37.982,8.192-57.532c0-19.507-2.731-38.801-8.132-57.353c-1.314-4.523,1.28-9.259,5.811-10.573
		c4.514-1.34,9.259,1.289,10.573,5.811c5.854,20.096,8.815,40.994,8.815,62.114c0,21.171-2.987,42.138-8.875,62.319
		C450.782,322.039,447.377,324.454,443.674,324.454z"/>
	<path style="fill:#611C90;" d="M68.318,324.454c-3.695,0-7.1-2.415-8.183-6.144c-5.888-20.164-8.875-41.131-8.875-62.319
		c0-21.111,2.97-42.001,8.815-62.114c1.314-4.523,6.05-7.108,10.581-5.811c4.523,1.314,7.125,6.05,5.811,10.581
		c-5.402,18.569-8.141,37.862-8.141,57.353c0,19.567,2.756,38.929,8.192,57.532c1.323,4.523-1.271,9.259-5.803,10.581
		C69.922,324.352,69.111,324.454,68.318,324.454z"/>
	<path style="fill:#611C90;" d="M25.6,358.4c-3.26,0-6.383-1.886-7.799-5.052C6.323,327.637,0,293.069,0,256
		s6.323-71.637,17.809-97.348c1.911-4.301,6.955-6.246,11.273-4.309c4.301,1.92,6.229,6.972,4.309,11.273
		C22.861,189.184,17.067,221.278,17.067,256c0,34.714,5.794,66.816,16.324,90.385c1.92,4.309-0.009,9.353-4.309,11.273
		C27.947,358.17,26.769,358.4,25.6,358.4z"/>
	<path style="fill:#611C90;" d="M486.392,358.4c-1.161,0-2.338-0.23-3.465-0.742c-4.309-1.929-6.238-6.963-4.318-11.264
		c10.522-23.586,16.324-55.689,16.324-90.394s-5.803-66.807-16.324-90.385c-1.929-4.301,0.009-9.353,4.318-11.273
		c4.292-1.929,9.353,0.009,11.264,4.309C505.677,184.371,512,218.948,512,256c0,37.06-6.323,71.629-17.809,97.34
		C492.774,356.514,489.66,358.4,486.392,358.4z"/>
	<path style="fill:#611C90;" d="M262.528,332.911c-55.663,0-100.599-16.666-103.415-17.724c-3.849-1.468-6.11-5.47-5.367-9.515
		c0.742-4.062,4.267-7.006,8.388-7.006c12.834,0,17.041-28.749,17.067-42.675v-59.725c0-47.249,50.236-59.733,76.8-59.733
		c26.564,0,76.8,12.484,76.8,59.733V256c0.026,13.918,4.233,42.667,17.067,42.667c4.036,0,7.509,2.816,8.354,6.758
		c0.836,3.951-1.203,7.936-4.881,9.574C323.098,328.431,291.371,332.911,262.528,332.911z M183.501,304.845
		c29.397,7.859,89.506,19.243,145.852,1.067c-13.107-15.787-13.619-45.457-13.619-49.911v-59.733
		c0-42.001-57.31-42.658-59.742-42.667c-2.415,0.009-59.725,0.666-59.725,42.667V256
		C196.267,260.361,195.78,288.836,183.501,304.845z"/>
	<path style="fill:#611C90;" d="M221.867,264.533c-4.71,0-8.533-3.823-8.533-8.533v-59.733c0-24.9,42.462-25.6,42.889-25.6
		c4.71,0,8.533,3.823,8.533,8.533s-3.814,8.533-8.533,8.533c-11.264,0.35-25.822,4.437-25.822,8.533V256
		C230.4,260.71,226.577,264.533,221.867,264.533z"/>
	<path style="fill:#611C90;" d="M256,375.467c-23.526,0-42.667-19.14-42.667-42.667v-11.452c0-2.466,1.067-4.813,2.927-6.434
		c1.852-1.621,4.309-2.372,6.775-2.014c23.074,3.2,45.346,3.678,66.167,1.408c2.398-0.256,4.813,0.512,6.622,2.133
		c1.809,1.613,2.842,3.925,2.842,6.349v10.01C298.667,356.326,279.526,375.467,256,375.467z M230.4,330.999v1.801
		c0,14.114,11.486,25.6,25.6,25.6c14.114,0,25.6-11.486,25.6-25.6v-0.674C265.156,333.278,248.013,332.902,230.4,330.999z"/>
</g>
<g>
</g>
<g>
</g>
<g>
</g>
<g>
</g>
<g>
</g>
<g>
</g>
<g>
</g>
<g>
</g>
<g>
</g>
<g>
</g>
<g>
</g>
<g>
</g>
<g>
</g>
<g>
</g>
<g>
</g>
</svg>
